<svg xmlns="http://www.w3.org/2000/svg" version="1.1" xmlns:xlink="http://www.w3.org/1999/xlink" width="512" height="512" x="0" y="0" viewBox="0 0 24 24" style="enable-background:new 0 0 512 512" xml:space="preserve" class=""><g><path d="M19.5 1h-15A4.505 4.505 0 0 0 0 5.5v13C0 20.981 2.019 23 4.5 23h7a.5.5 0 0 0 0-1h-7C2.57 22 1 20.43 1 18.5V9h22v4.5a.5.5 0 0 0 1 0v-8C24 3.019 21.981 1 19.5 1ZM1 8V5.5C1 3.57 2.57 2 4.5 2h15C21.43 2 23 3.57 23 5.5V8H1Zm4-3a1 1 0 1 1-2 0 1 1 0 0 1 2 0Zm3 0a1 1 0 1 1-2 0 1 1 0 0 1 2 0Zm3 0a1 1 0 1 1-2 0 1 1 0 0 1 2 0Zm9.87 15.163A4.977 4.977 0 0 0 22 17c0-2.757-2.243-5-5-5s-5 2.243-5 5 2.243 5 5 5c1.199 0 2.3-.424 3.163-1.13l2.984 2.984a.498.498 0 0 0 .708 0 .5.5 0 0 0 0-.707l-2.984-2.984ZM17 21c-2.206 0-4-1.794-4-4s1.794-4 4-4 4 1.794 4 4-1.794 4-4 4Z" fill="#ffffff" opacity="1" data-original="#000000" class=""></path></g></svg>