<svg xmlns="http://www.w3.org/2000/svg" xmlns:xlink="http://www.w3.org/1999/xlink" width="1000" zoomAndPan="magnify" viewBox="0 0 750 749.999995" height="1000" preserveAspectRatio="xMidYMid meet" version="1.0"><defs><g/><clipPath id="caf009d419"><path d="M 161.355469 107.886719 L 588.644531 107.886719 L 588.644531 535.175781 L 161.355469 535.175781 Z M 161.355469 107.886719 " clip-rule="nonzero"/></clipPath><clipPath id="fdf3d7c741"><path d="M 375 107.886719 C 257.007812 107.886719 161.355469 203.539062 161.355469 321.53125 C 161.355469 439.523438 257.007812 535.175781 375 535.175781 C 492.992188 535.175781 588.644531 439.523438 588.644531 321.53125 C 588.644531 203.539062 492.992188 107.886719 375 107.886719 Z M 375 107.886719 " clip-rule="nonzero"/></clipPath><clipPath id="ccfdc174db"><path d="M 0.355469 0.886719 L 427.644531 0.886719 L 427.644531 428.175781 L 0.355469 428.175781 Z M 0.355469 0.886719 " clip-rule="nonzero"/></clipPath><clipPath id="1db81fd1f2"><path d="M 214 0.886719 C 96.007812 0.886719 0.355469 96.539062 0.355469 214.53125 C 0.355469 332.523438 96.007812 428.175781 214 428.175781 C 331.992188 428.175781 427.644531 332.523438 427.644531 214.53125 C 427.644531 96.539062 331.992188 0.886719 214 0.886719 Z M 214 0.886719 " clip-rule="nonzero"/></clipPath><clipPath id="98f0c3ad1a"><rect x="0" width="428" y="0" height="429"/></clipPath><clipPath id="93db6a85b8"><path d="M 242.503906 211.058594 L 507.496094 211.058594 L 507.496094 402.367188 L 242.503906 402.367188 Z M 242.503906 211.058594 " clip-rule="nonzero"/></clipPath><clipPath id="724543282a"><path d="M 0.503906 0.0585938 L 265.496094 0.0585938 L 265.496094 191.367188 L 0.503906 191.367188 Z M 0.503906 0.0585938 " clip-rule="nonzero"/></clipPath><clipPath id="0e22086f03"><rect x="0" width="266" y="0" height="192"/></clipPath><clipPath id="327e908fac"><path d="M 199.011719 196.800781 L 550.761719 196.800781 L 550.761719 446.550781 L 199.011719 446.550781 Z M 199.011719 196.800781 " clip-rule="nonzero"/></clipPath><clipPath id="60d0d20619"><path d="M 272.105469 227.355469 L 477.605469 227.355469 L 477.605469 386 L 272.105469 386 Z M 272.105469 227.355469 " clip-rule="nonzero"/></clipPath><clipPath id="cc711cdece"><rect x="0" width="511" y="0" height="81"/></clipPath></defs><g clip-path="url(#caf009d419)"><g clip-path="url(#fdf3d7c741)"><g transform="matrix(1, 0, 0, 1, 161, 107)"><g clip-path="url(#98f0c3ad1a)"><g clip-path="url(#ccfdc174db)"><g clip-path="url(#1db81fd1f2)"><path fill="#ffffff" d="M 0.355469 0.886719 L 427.644531 0.886719 L 427.644531 428.175781 L 0.355469 428.175781 Z M 0.355469 0.886719 " fill-opacity="1" fill-rule="nonzero"/></g></g></g></g></g></g><g clip-path="url(#93db6a85b8)"><g transform="matrix(1, 0, 0, 1, 242, 211)"><g clip-path="url(#0e22086f03)"><g clip-path="url(#724543282a)"><path fill="#ffffff" d="M 0.503906 0.0585938 L 265.792969 0.0585938 L 265.792969 191.367188 L 0.503906 191.367188 Z M 0.503906 0.0585938 " fill-opacity="1" fill-rule="nonzero"/></g></g></g></g><g clip-path="url(#327e908fac)"><path fill="#05200f" d="M 492.324219 416.855469 C 508.53125 416.855469 521.507812 403.730469 521.507812 387.523438 L 521.65625 226.203125 C 521.65625 210 508.53125 196.871094 492.324219 196.871094 L 257.675781 196.871094 C 241.46875 196.871094 228.34375 210 228.34375 226.203125 L 228.34375 387.523438 C 228.34375 403.730469 241.46875 416.855469 257.675781 416.855469 L 199.011719 416.855469 C 199.011719 433.0625 212.140625 446.1875 228.34375 446.1875 L 521.65625 446.1875 C 537.859375 446.1875 550.984375 433.0625 550.984375 416.855469 Z M 257.675781 226.203125 L 492.324219 226.203125 L 492.324219 387.523438 L 257.675781 387.523438 Z M 375 431.519531 C 366.933594 431.519531 360.335938 424.921875 360.335938 416.855469 C 360.335938 408.789062 366.933594 402.191406 375 402.191406 C 383.066406 402.191406 389.664062 408.789062 389.664062 416.855469 C 389.664062 424.921875 383.066406 431.519531 375 431.519531 Z M 375 431.519531 " fill-opacity="1" fill-rule="nonzero"/></g><g clip-path="url(#60d0d20619)"><path fill="#000000" d="M 474.972656 345.597656 C 473.738281 345.917969 472.484375 346.082031 471.210938 346.085938 C 464.570312 346.085938 457.890625 346.140625 452.304688 341.890625 C 452.105469 342.183594 451.835938 342.378906 451.492188 342.472656 L 451.492188 347.527344 L 438.582031 347.527344 C 438.453125 346.875 438.3125 346.238281 438.171875 345.617188 C 438.085938 345.238281 438.003906 344.863281 437.925781 344.492188 L 437.886719 344.316406 C 437.5 342.472656 437.347656 341.613281 437.953125 340.601562 C 439.109375 338.667969 439.242188 335.5625 438.257812 333.375 C 434.867188 325.847656 431.019531 319.828125 426.488281 314.964844 C 423.933594 312.183594 421.085938 309.753906 417.933594 307.675781 C 414.785156 305.597656 411.433594 303.933594 407.875 302.679688 C 402.566406 300.777344 396.8125 299.855469 390.285156 299.855469 C 388.378906 299.855469 386.421875 299.933594 384.304688 300.085938 C 381.117188 300.324219 377.730469 300.554688 374.425781 300.554688 C 373.054688 300.554688 371.792969 300.519531 370.566406 300.4375 C 369.324219 300.359375 367.730469 299.453125 366.1875 298.574219 C 365.886719 298.402344 365.585938 298.234375 365.289062 298.070312 C 361.019531 295.699219 356.960938 294.550781 352.890625 294.550781 C 352.355469 294.550781 351.8125 294.570312 351.28125 294.613281 C 350.726562 294.652344 350.171875 294.671875 349.644531 294.671875 C 346.589844 294.714844 343.738281 293.976562 341.085938 292.464844 C 340.945312 292.378906 340.839844 292.316406 340.757812 292.265625 C 341.527344 288.707031 340.378906 285.519531 337.597656 283.507812 C 336.132812 282.410156 334.488281 281.847656 332.65625 281.816406 C 331.132812 281.8125 329.753906 282.257812 328.515625 283.148438 C 327.148438 284.128906 326.242188 285.441406 325.367188 286.707031 C 325.253906 286.863281 325.144531 287.023438 325.03125 287.183594 C 324.953125 287.066406 324.886719 286.941406 324.832031 286.808594 C 323.949219 284.746094 321.617188 283.449219 319.894531 282.960938 C 319.34375 282.804688 318.785156 282.726562 318.214844 282.726562 C 317.238281 282.730469 316.316406 282.953125 315.449219 283.394531 C 314.582031 283.835938 313.859375 284.449219 313.28125 285.238281 C 312.636719 286.109375 312.21875 287.082031 312.035156 288.152344 C 311.851562 289.222656 311.917969 290.277344 312.234375 291.316406 C 312.324219 291.570312 312.371094 291.832031 312.378906 292.097656 C 312.113281 292.363281 311.816406 292.589844 311.488281 292.773438 C 308.21875 294.828125 306.390625 297.816406 306.195312 301.425781 C 306.152344 302.179688 305.492188 302.699219 303.644531 303.78125 C 303.503906 303.863281 303.367188 303.941406 303.226562 304.023438 C 302.328125 304.5 301.390625 304.882812 300.417969 305.179688 C 300.0625 305.300781 299.707031 305.417969 299.359375 305.546875 C 297.707031 306.140625 296.636719 307.105469 296.160156 308.425781 C 295.9375 309.085938 295.871094 309.761719 295.960938 310.453125 C 296.050781 311.144531 296.289062 311.78125 296.675781 312.363281 C 297.027344 312.992188 297.339844 313.640625 297.621094 314.304688 C 298.742188 316.835938 300.28125 320.308594 304.832031 321.179688 L 305.300781 321.273438 C 306.488281 321.542969 307.691406 321.695312 308.910156 321.730469 C 309.035156 321.730469 309.167969 321.722656 309.296875 321.71875 C 309.433594 321.714844 309.566406 321.714844 309.699219 321.714844 C 312.121094 321.714844 313.761719 322.578125 315.019531 324.515625 L 315.136719 324.695312 C 315.8125 325.746094 317.074219 327.707031 319.722656 327.707031 L 319.804688 327.707031 C 319.976562 327.921875 320.15625 328.144531 320.335938 328.378906 C 320.714844 328.867188 321.105469 329.367188 321.578125 329.871094 C 321.609375 329.910156 321.699219 330.023438 321.765625 330.109375 C 322.230469 330.707031 323.167969 331.910156 324.8125 332.066406 C 325.53125 333.910156 325.78125 335.925781 325.890625 338.355469 C 325.953125 339.726562 326.09375 341.078125 326.230469 342.394531 C 326.445312 344.097656 326.558594 345.8125 326.574219 347.527344 L 298.449219 347.527344 C 298.464844 347.511719 298.480469 347.484375 298.5 347.460938 L 298.5 336.363281 C 292.753906 341.277344 285.746094 341.214844 278.78125 341.214844 C 277.503906 341.210938 276.25 341.046875 275.015625 340.726562 C 272.519531 340.105469 272.113281 338.792969 273.839844 336.882812 C 277.5625 332.878906 280.535156 328.382812 282.761719 323.386719 C 282.851562 323.160156 282.949219 322.921875 283.183594 322.355469 C 282.09375 323.042969 280.964844 323.664062 279.804688 324.222656 C 278.890625 324.65625 277.929688 324.882812 276.921875 324.894531 C 275.015625 324.832031 274.503906 323.613281 275.664062 322.121094 C 277.222656 320.109375 278.953125 318.21875 280.472656 316.179688 C 282.378906 313.683594 284.109375 311.066406 285.65625 308.332031 C 284.355469 308.960938 283.082031 309.621094 281.753906 310.171875 C 281.023438 310.496094 280.257812 310.683594 279.460938 310.742188 C 278.757812 310.679688 278.074219 310.53125 277.410156 310.292969 C 277.605469 309.628906 277.660156 308.863281 278.03125 308.324219 C 279.421875 306.25 281.160156 304.382812 282.324219 302.207031 C 284.59375 297.921875 286.554688 293.472656 288.640625 289.101562 C 288.496094 289.015625 285.734375 291.148438 284.476562 292.253906 C 284.039062 292.648438 283.550781 292.96875 283.011719 293.207031 C 281.703125 293.75 280.980469 293.167969 281.332031 291.816406 C 281.585938 290.957031 281.972656 290.160156 282.492188 289.429688 C 284.476562 286.363281 286.539062 283.335938 288.519531 280.257812 C 289.0625 279.261719 289.546875 278.238281 289.976562 277.191406 C 288.933594 277.691406 288.246094 278.246094 287.507812 278.332031 C 286.648438 278.402344 284.976562 276.230469 285.382812 275.617188 C 287.6875 272.050781 290.191406 268.613281 292.441406 265.03125 C 293.574219 263.261719 294.320312 261.285156 295.246094 259.40625 C 295.140625 259.324219 295.035156 259.246094 294.925781 259.164062 C 294.394531 259.601562 287.785156 259.984375 288.246094 259.335938 C 291.140625 255.257812 293.859375 251.078125 295.5 246.3125 C 295.726562 245.671875 295.882812 245.011719 296.027344 244.566406 C 294.972656 244.632812 293.992188 244.6875 293.03125 244.734375 C 293.394531 243.808594 293.832031 242.914062 294.339844 242.054688 C 296.964844 238.105469 299.210938 233.972656 300.492188 229.375 C 300.621094 228.941406 301.058594 227.480469 301.0625 227.453125 C 301.066406 227.460938 301.066406 227.46875 301.070312 227.472656 C 301.082031 227.46875 301.082031 227.460938 301.085938 227.453125 C 301.089844 227.480469 301.527344 228.941406 301.648438 229.375 C 302.929688 233.972656 305.183594 238.105469 307.808594 242.054688 C 308.3125 242.917969 308.746094 243.808594 309.117188 244.734375 C 308.15625 244.6875 307.175781 244.632812 306.121094 244.566406 C 306.261719 245.011719 306.421875 245.671875 306.644531 246.3125 C 308.285156 251.078125 311.007812 255.257812 313.902344 259.335938 C 314.363281 259.984375 307.753906 259.601562 307.214844 259.164062 C 307.109375 259.246094 307.003906 259.324219 306.902344 259.40625 C 307.824219 261.285156 308.574219 263.261719 309.699219 265.03125 C 310.847656 266.851562 312.054688 268.632812 313.273438 270.414062 C 313.109375 270.128906 313.089844 269.835938 313.21875 269.535156 C 316.117188 265.460938 318.839844 261.28125 320.480469 256.515625 C 320.703125 255.875 320.863281 255.214844 321.003906 254.765625 C 319.945312 254.835938 318.964844 254.890625 318.003906 254.9375 C 318.375 254.011719 318.8125 253.117188 319.316406 252.257812 C 321.941406 248.308594 324.191406 244.171875 325.46875 239.578125 C 325.59375 239.144531 326.03125 237.683594 326.039062 237.65625 C 326.042969 237.664062 326.042969 237.667969 326.050781 237.675781 C 326.054688 237.667969 326.054688 237.664062 326.0625 237.65625 C 326.066406 237.683594 326.503906 239.144531 326.628906 239.578125 C 327.910156 244.171875 330.15625 248.308594 332.785156 252.257812 C 333.289062 253.117188 333.726562 254.011719 334.09375 254.9375 C 333.132812 254.890625 332.152344 254.835938 331.09375 254.765625 C 331.238281 255.214844 331.394531 255.875 331.625 256.515625 C 333.265625 261.28125 335.980469 265.460938 338.878906 269.535156 C 339.339844 270.1875 331.984375 269.527344 331.875 269.609375 C 332.804688 271.488281 339.242188 279.625 341.546875 283.195312 C 341.601562 283.277344 345.890625 279.011719 346.820312 277.132812 C 346.710938 277.050781 346.605469 276.972656 346.5 276.890625 C 345.960938 277.324219 339.351562 277.710938 339.8125 277.058594 C 342.707031 272.980469 345.429688 268.804688 347.070312 264.03125 C 347.292969 263.398438 347.453125 262.738281 347.597656 262.285156 C 346.539062 262.359375 345.5625 262.410156 344.597656 262.460938 C 344.96875 261.535156 345.402344 260.640625 345.90625 259.78125 C 348.53125 255.832031 350.785156 251.695312 352.066406 247.09375 C 352.1875 246.667969 352.625 245.207031 352.628906 245.175781 C 352.636719 245.183594 352.636719 245.191406 352.644531 245.195312 C 352.648438 245.191406 352.648438 245.183594 352.652344 245.175781 C 352.65625 245.207031 353.09375 246.667969 353.222656 247.09375 C 354.148438 250.300781 355.464844 253.335938 357.160156 256.207031 C 359.285156 253.128906 360.988281 249.828125 362.265625 246.3125 C 362.492188 245.671875 362.652344 245.011719 362.792969 244.566406 C 361.738281 244.632812 360.757812 244.6875 359.796875 244.734375 C 360.164062 243.808594 360.597656 242.917969 361.101562 242.054688 C 363.734375 238.105469 365.980469 233.972656 367.261719 229.375 C 367.382812 228.941406 367.820312 227.480469 367.828125 227.453125 C 367.835938 227.460938 367.835938 227.46875 367.839844 227.472656 C 367.84375 227.46875 367.84375 227.460938 367.847656 227.453125 C 367.859375 227.480469 368.296875 228.941406 368.417969 229.375 C 369.699219 233.972656 371.945312 238.105469 374.570312 242.054688 C 375.078125 242.914062 375.515625 243.808594 375.882812 244.734375 C 374.921875 244.6875 373.941406 244.632812 372.886719 244.566406 C 373.027344 245.011719 373.1875 245.671875 373.410156 246.3125 C 375.050781 251.078125 377.773438 255.257812 380.671875 259.335938 C 381.128906 259.984375 374.523438 259.601562 373.984375 259.164062 C 373.875 259.246094 373.769531 259.324219 373.664062 259.40625 C 374.589844 261.285156 375.34375 263.261719 376.46875 265.03125 C 378.605469 268.429688 380.960938 271.695312 383.171875 275.074219 C 384.335938 273.367188 385.492188 271.652344 386.59375 269.90625 C 387.71875 268.136719 388.46875 266.160156 389.398438 264.28125 C 389.289062 264.199219 389.183594 264.125 389.078125 264.042969 C 388.539062 264.480469 381.929688 264.863281 382.390625 264.210938 C 385.285156 260.136719 388.007812 255.957031 389.648438 251.1875 C 389.871094 250.550781 390.035156 249.890625 390.175781 249.4375 C 389.117188 249.511719 388.136719 249.566406 387.175781 249.609375 C 387.546875 248.683594 387.984375 247.789062 388.484375 246.929688 C 391.109375 242.984375 393.363281 238.84375 394.644531 234.246094 C 394.765625 233.816406 395.203125 232.359375 395.207031 232.332031 C 395.214844 232.335938 395.214844 232.339844 395.222656 232.34375 C 395.226562 232.339844 395.226562 232.335938 395.230469 232.332031 C 395.234375 232.359375 395.671875 233.816406 395.800781 234.246094 C 397.082031 238.84375 399.328125 242.984375 401.953125 246.929688 C 402.460938 247.789062 402.894531 248.679688 403.261719 249.609375 C 402.300781 249.566406 401.320312 249.511719 400.265625 249.4375 C 400.410156 249.890625 400.566406 250.550781 400.792969 251.1875 C 402.078125 254.71875 403.789062 258.035156 405.929688 261.128906 C 406.972656 259.097656 407.820312 256.988281 408.476562 254.800781 C 407.632812 254.855469 406.824219 254.898438 406.035156 254.9375 C 406.40625 254.011719 406.84375 253.117188 407.34375 252.257812 C 409.976562 248.308594 412.222656 244.171875 413.503906 239.578125 C 413.625 239.144531 414.0625 237.683594 414.070312 237.65625 C 414.078125 237.664062 414.078125 237.667969 414.082031 237.675781 C 414.085938 237.667969 414.085938 237.664062 414.089844 237.65625 C 414.101562 237.683594 414.539062 239.144531 414.660156 239.578125 C 415.941406 244.171875 418.1875 248.308594 420.8125 252.257812 C 421.320312 253.117188 421.757812 254.011719 422.125 254.9375 C 421.164062 254.890625 420.183594 254.835938 419.128906 254.765625 C 419.269531 255.214844 419.429688 255.875 419.652344 256.515625 C 419.902344 257.226562 420.175781 257.921875 420.464844 258.609375 C 422.84375 255.042969 424.644531 251.203125 425.867188 247.09375 C 425.992188 246.667969 426.429688 245.207031 426.433594 245.175781 C 426.4375 245.183594 426.4375 245.191406 426.441406 245.195312 C 426.449219 245.191406 426.449219 245.183594 426.457031 245.175781 C 426.460938 245.207031 426.898438 246.667969 427.019531 247.09375 C 428.300781 251.695312 430.554688 255.832031 433.179688 259.78125 C 433.683594 260.640625 434.121094 261.535156 434.488281 262.460938 C 433.523438 262.410156 432.546875 262.359375 431.492188 262.285156 C 431.632812 262.738281 431.792969 263.398438 432.015625 264.03125 C 433.355469 267.691406 435.144531 271.121094 437.378906 274.316406 C 438.367188 272.855469 439.351562 271.394531 440.289062 269.90625 C 441.414062 268.136719 442.164062 266.160156 443.089844 264.28125 C 442.984375 264.199219 442.882812 264.125 442.773438 264.042969 C 442.234375 264.480469 435.625 264.863281 436.085938 264.210938 C 438.984375 260.136719 441.707031 255.957031 443.347656 251.1875 C 443.570312 250.550781 443.730469 249.890625 443.871094 249.4375 C 442.8125 249.511719 441.832031 249.566406 440.871094 249.609375 C 441.242188 248.683594 441.679688 247.789062 442.183594 246.929688 C 444.808594 242.984375 447.058594 238.84375 448.335938 234.246094 C 448.460938 233.816406 448.898438 232.359375 448.902344 232.332031 C 448.910156 232.335938 448.910156 232.339844 448.917969 232.34375 C 448.921875 232.339844 448.921875 232.335938 448.929688 232.332031 C 448.933594 232.359375 449.371094 233.816406 449.496094 234.246094 C 450.777344 238.84375 453.023438 242.984375 455.648438 246.929688 C 456.15625 247.789062 456.589844 248.683594 456.960938 249.609375 C 456 249.566406 455.019531 249.511719 453.960938 249.4375 C 454.105469 249.890625 454.261719 250.550781 454.492188 251.1875 C 456.128906 255.957031 458.847656 260.136719 461.746094 264.210938 C 462.207031 264.863281 455.597656 264.480469 455.0625 264.042969 C 454.957031 264.125 454.847656 264.199219 454.742188 264.28125 C 455.667969 266.160156 456.417969 268.136719 457.542969 269.90625 C 459.800781 273.488281 462.304688 276.921875 464.609375 280.496094 C 465.011719 281.101562 461.058594 282.566406 460.011719 282.0625 C 460.445312 283.113281 460.929688 284.136719 461.46875 285.132812 C 463.445312 288.207031 465.511719 291.234375 467.496094 294.300781 C 468.015625 295.035156 468.402344 295.835938 468.65625 296.695312 C 469.011719 298.039062 468.289062 298.628906 466.976562 298.082031 C 466.441406 297.84375 465.953125 297.527344 465.511719 297.132812 C 464.253906 296.019531 461.492188 293.890625 461.347656 293.972656 C 463.433594 298.34375 470.570312 311.125 471.957031 313.195312 C 472.332031 313.742188 472.382812 314.507812 472.578125 315.167969 C 471.914062 315.402344 471.230469 315.554688 470.53125 315.617188 C 469.734375 315.558594 468.96875 315.371094 468.234375 315.050781 C 466.910156 314.496094 465.628906 313.832031 464.332031 313.207031 C 465.882812 315.941406 467.609375 318.558594 469.515625 321.058594 C 471.035156 323.09375 472.769531 324.980469 474.324219 326.996094 C 475.484375 328.488281 474.972656 329.703125 473.070312 329.769531 C 472.058594 329.753906 471.097656 329.53125 470.1875 329.097656 C 469.023438 328.539062 467.894531 327.917969 466.804688 327.234375 C 467.042969 327.796875 467.136719 328.035156 467.230469 328.265625 C 469.453125 333.257812 472.425781 337.753906 476.144531 341.753906 C 477.878906 343.664062 477.472656 344.976562 474.972656 345.597656 Z M 341.527344 294.917969 C 341.535156 294.925781 341.535156 294.929688 341.539062 294.933594 C 341.539062 294.925781 341.542969 294.917969 341.546875 294.914062 C 341.539062 294.914062 341.535156 294.917969 341.527344 294.917969 Z M 442.503906 363.621094 C 438.527344 359.410156 436.726562 354.257812 435.828125 348.679688 C 435.632812 347.476562 435.328125 346.289062 435.074219 345.089844 C 434.648438 343.070312 434.203125 341.203125 435.453125 339.109375 C 436.144531 337.953125 436.171875 335.84375 435.601562 334.570312 C 429.640625 321.339844 421.148438 310.519531 406.890625 305.417969 C 399.628906 302.820312 392.148438 302.425781 384.523438 302.992188 C 379.820312 303.339844 375.070312 303.644531 370.382812 303.34375 C 368.160156 303.203125 365.941406 301.757812 363.878906 300.617188 C 360 298.46875 355.953125 297.183594 351.496094 297.515625 C 349.4375 297.710938 347.398438 297.597656 345.375 297.164062 C 343.351562 296.734375 341.441406 296.007812 339.640625 294.988281 C 338.222656 294.175781 337.503906 293.507812 337.90625 291.65625 C 338.382812 289.484375 337.882812 287.304688 335.890625 285.871094 C 334.097656 284.578125 331.957031 284.265625 330.214844 285.515625 C 328.804688 286.527344 327.925781 288.277344 326.578125 289.996094 C 325.078125 290.214844 323.246094 290.484375 322.160156 287.960938 C 321.726562 286.953125 320.265625 286.09375 319.101562 285.765625 C 316.527344 285.039062 314.1875 287.59375 315.03125 290.503906 C 315.738281 292.9375 314.992188 294.011719 313.035156 295.238281 C 310.8125 296.636719 309.261719 298.652344 309.101562 301.585938 C 308.957031 304.21875 306.667969 305.371094 304.710938 306.53125 C 303.375 307.320312 301.820312 307.753906 300.34375 308.285156 C 299.015625 308.761719 298.390625 309.542969 299.179688 310.878906 C 300.84375 313.691406 301.304688 317.535156 305.382812 318.320312 C 306.628906 318.625 307.898438 318.789062 309.183594 318.808594 C 312.734375 318.675781 315.511719 319.921875 317.464844 322.929688 C 318.171875 324.019531 318.808594 325.207031 320.515625 324.664062 C 320.792969 324.574219 321.347656 325.054688 321.648438 325.390625 C 322.371094 326.191406 322.976562 327.101562 323.710938 327.894531 C 324.398438 328.636719 324.953125 330.019531 326.222656 328.457031 C 328.257812 331.621094 328.648438 334.9375 328.800781 338.21875 C 329.03125 343.144531 330.339844 348.15625 328.613281 352.992188 C 327.601562 355.894531 326.234375 358.621094 324.519531 361.167969 C 322.082031 364.722656 319.117188 367.910156 318.425781 372.40625 C 317.707031 377.039062 320.585938 383.210938 324.460938 384.546875 C 325.800781 385.007812 327.6875 385.035156 328.902344 384.421875 C 330.417969 383.65625 329.984375 381.832031 329.585938 380.300781 C 328.601562 376.476562 328.769531 376.292969 332.625 374.949219 C 338.378906 372.945312 343.304688 369.621094 347.6875 365.410156 C 348.886719 364.257812 348.804688 363.433594 347.867188 362.132812 C 341.828125 353.730469 337.371094 344.597656 335.464844 334.34375 C 335.300781 333.460938 335.257812 332.558594 335.210938 332.132812 C 338.320312 339.058594 341.382812 346.441406 344.921875 353.582031 C 347.480469 358.742188 350.828125 363.503906 353.519531 368.601562 C 354.625 370.875 355.355469 373.261719 355.707031 375.761719 C 356.167969 378.492188 355.515625 379.050781 352.816406 379.859375 C 351.5625 380.171875 350.390625 380.683594 349.308594 381.390625 C 348.964844 381.679688 348.703125 382.027344 348.527344 382.441406 C 348.347656 382.851562 348.269531 383.28125 348.296875 383.730469 C 348.414062 384.296875 349.609375 385 350.34375 385.019531 C 355.152344 385.144531 359.960938 385.125 364.769531 385.105469 C 367.425781 385.097656 368.796875 383.359375 369.558594 381.125 C 372.171875 373.492188 372.75 365.632812 371.75 357.675781 C 371.179688 353.128906 370.269531 348.625 369.511719 344.105469 C 369.695312 344.054688 372.398438 352.140625 373.628906 356.214844 C 373.832031 356.878906 374.285156 357.890625 374.761719 357.976562 C 379.265625 358.808594 383.800781 359.480469 388.332031 360.183594 C 390.382812 360.5 391.515625 359.8125 391.230469 357.519531 C 391.261719 357.058594 391.429688 356.65625 391.746094 356.316406 C 391.273438 363.066406 393.410156 369.421875 394.5 375.929688 C 394.949219 378.609375 394.539062 379.15625 391.964844 379.871094 C 390.839844 380.125 389.789062 380.558594 388.8125 381.179688 C 388.171875 381.644531 387.449219 382.773438 387.613281 383.375 C 387.984375 384.316406 388.644531 384.957031 389.59375 385.300781 C 390.984375 385.714844 392.402344 385.90625 393.851562 385.867188 C 398.320312 385.828125 402.785156 385.714844 407.246094 385.523438 C 409.8125 385.410156 410.789062 384.546875 411.101562 382.011719 C 412.328125 372.097656 416.207031 363.386719 422.390625 355.5625 C 424.640625 352.789062 426.421875 349.742188 427.734375 346.417969 C 429.046875 343.097656 429.828125 339.652344 430.078125 336.089844 C 431.433594 340.21875 431.269531 342.585938 429.515625 347.585938 C 427.894531 352.21875 425.132812 356.144531 422.128906 359.976562 C 420.054688 362.617188 418.324219 365.535156 416.542969 368.394531 C 415.804688 369.585938 416.152344 370.605469 417.613281 371.039062 C 421.667969 372.238281 425.730469 373.417969 429.777344 374.648438 C 430.753906 374.886719 431.671875 375.261719 432.539062 375.773438 C 432.699219 375.890625 432.84375 376.019531 432.96875 376.171875 C 433.09375 376.324219 433.199219 376.488281 433.28125 376.664062 C 433.367188 376.84375 433.425781 377.027344 433.464844 377.222656 C 433.5 377.414062 433.511719 377.609375 433.5 377.804688 C 433.484375 378 433.449219 378.191406 433.386719 378.378906 C 433.324219 378.566406 433.238281 378.742188 433.132812 378.90625 C 433.027344 379.070312 432.898438 379.21875 432.753906 379.351562 C 432.609375 379.484375 432.449219 379.597656 432.277344 379.6875 C 431.523438 380.105469 430.570312 380.261719 429.972656 380.820312 C 429.300781 381.441406 428.378906 382.5625 428.566406 383.144531 C 428.820312 383.921875 429.960938 384.75 430.847656 384.929688 C 435.917969 385.964844 440.3125 384.957031 443.183594 380.179688 C 444.628906 377.777344 446.125 375.398438 447.433594 372.921875 C 448.242188 371.398438 447.933594 369.828125 446.78125 368.492188 C 445.367188 366.859375 443.984375 365.191406 442.503906 363.621094 Z M 442.503906 363.621094 " fill-opacity="1" fill-rule="nonzero"/></g><g transform="matrix(1, 0, 0, 1, 119, 532)"><g clip-path="url(#cc711cdece)"><g fill="#ffffff" fill-opacity="1"><g transform="translate(2.040421, 63.826188)"><g><path d="M 12.859375 0 L 6.109375 0 L 6.109375 -43.6875 L 12.859375 -43.6875 L 12.859375 -22.28125 L 34.265625 -43.6875 L 43.125 -43.6875 L 24.28125 -25.40625 L 43.5 0 L 35.078125 0 L 19.53125 -20.78125 L 12.859375 -14.296875 Z M 12.859375 0 "/></g></g></g><g fill="#ffffff" fill-opacity="1"><g transform="translate(44.972591, 63.826188)"><g><path d="M 45.8125 -21.84375 C 45.8125 -18.675781 45.289062 -15.726562 44.25 -13 C 43.207031 -10.28125 41.71875 -7.898438 39.78125 -5.859375 C 37.84375 -3.828125 35.570312 -2.238281 32.96875 -1.09375 C 30.375 0.0507812 27.519531 0.625 24.40625 0.625 C 21.28125 0.625 18.40625 0.0507812 15.78125 -1.09375 C 13.164062 -2.238281 10.898438 -3.828125 8.984375 -5.859375 C 7.066406 -7.898438 5.585938 -10.28125 4.546875 -13 C 3.515625 -15.726562 3 -18.675781 3 -21.84375 C 3 -25 3.515625 -27.941406 4.546875 -30.671875 C 5.585938 -33.398438 7.066406 -35.78125 8.984375 -37.8125 C 10.898438 -39.851562 13.164062 -41.445312 15.78125 -42.59375 C 18.40625 -43.738281 21.28125 -44.3125 24.40625 -44.3125 C 27.519531 -44.3125 30.375 -43.738281 32.96875 -42.59375 C 35.570312 -41.445312 37.84375 -39.851562 39.78125 -37.8125 C 41.71875 -35.78125 43.207031 -33.398438 44.25 -30.671875 C 45.289062 -27.941406 45.8125 -25 45.8125 -21.84375 Z M 38.9375 -21.84375 C 38.9375 -24.875 38.3125 -27.585938 37.0625 -29.984375 C 35.820312 -32.378906 34.109375 -34.269531 31.921875 -35.65625 C 29.734375 -37.050781 27.226562 -37.75 24.40625 -37.75 C 21.53125 -37.75 19 -37.050781 16.8125 -35.65625 C 14.632812 -34.269531 12.929688 -32.378906 11.703125 -29.984375 C 10.472656 -27.585938 9.859375 -24.875 9.859375 -21.84375 C 9.859375 -18.800781 10.472656 -16.082031 11.703125 -13.6875 C 12.929688 -11.300781 14.632812 -9.410156 16.8125 -8.015625 C 19 -6.617188 21.53125 -5.921875 24.40625 -5.921875 C 27.226562 -5.921875 29.734375 -6.617188 31.921875 -8.015625 C 34.109375 -9.410156 35.820312 -11.3125 37.0625 -13.71875 C 38.3125 -16.132812 38.9375 -18.84375 38.9375 -21.84375 Z M 38.9375 -21.84375 "/></g></g></g><g fill="#ffffff" fill-opacity="1"><g transform="translate(93.833319, 63.826188)"><g><path d="M 38.5 -29.765625 C 38.5 -27.148438 37.71875 -24.71875 36.15625 -22.46875 C 34.601562 -20.21875 32.578125 -18.550781 30.078125 -17.46875 L 40.25 0.0625 L 32.078125 0 L 22.84375 -16.40625 L 12.859375 -16.40625 L 12.859375 0 L 6.109375 0 L 6.109375 -43.6875 L 24.71875 -43.6875 C 27 -43.6875 29.191406 -43.125 31.296875 -42 C 33.398438 -40.875 35.125 -39.269531 36.46875 -37.1875 C 37.820312 -35.113281 38.5 -32.640625 38.5 -29.765625 Z M 23.59375 -37.1875 L 12.859375 -37.1875 L 12.859375 -22.90625 L 25.34375 -22.90625 C 27.332031 -22.90625 28.878906 -23.609375 29.984375 -25.015625 C 31.085938 -26.429688 31.640625 -28.035156 31.640625 -29.828125 C 31.640625 -32.117188 30.847656 -33.914062 29.265625 -35.21875 C 27.679688 -36.53125 25.789062 -37.1875 23.59375 -37.1875 Z M 23.59375 -37.1875 "/></g></g></g><g fill="#ffffff" fill-opacity="1"><g transform="translate(137.265087, 63.826188)"><g><path d="M 23.90625 -43.6875 C 26.226562 -43.6875 28.367188 -43.09375 30.328125 -41.90625 C 32.285156 -40.71875 33.84375 -39.113281 35 -37.09375 C 36.164062 -35.082031 36.75 -32.804688 36.75 -30.265625 C 36.75 -27.765625 36.164062 -25.484375 35 -23.421875 C 33.84375 -21.367188 32.285156 -19.738281 30.328125 -18.53125 C 28.367188 -17.320312 26.226562 -16.71875 23.90625 -16.71875 L 12.859375 -16.71875 L 12.859375 0 L 6.109375 0 L 6.109375 -43.6875 Z M 23.78125 -23.21875 C 24.90625 -23.21875 25.921875 -23.539062 26.828125 -24.1875 C 27.742188 -24.832031 28.484375 -25.679688 29.046875 -26.734375 C 29.609375 -27.796875 29.890625 -28.972656 29.890625 -30.265625 C 29.890625 -32.222656 29.285156 -33.863281 28.078125 -35.1875 C 26.867188 -36.519531 25.4375 -37.1875 23.78125 -37.1875 L 12.859375 -37.1875 L 12.859375 -23.21875 Z M 23.78125 -23.21875 "/></g></g></g><g fill="#ffffff" fill-opacity="1"><g transform="translate(176.890334, 63.826188)"><g><path d="M 25.34375 0 L 4.5 0 L 4.5 -6.234375 L 11.546875 -6.234375 L 11.546875 -37.4375 L 4.5 -37.4375 L 4.5 -43.6875 L 25.34375 -43.6875 L 25.34375 -37.4375 L 18.28125 -37.4375 L 18.28125 -6.234375 L 25.34375 -6.234375 Z M 25.34375 0 "/></g></g></g><g fill="#ffffff" fill-opacity="1"><g transform="translate(206.780859, 63.826188)"><g><path d="M 12.859375 0 L 6.109375 0 L 6.109375 -43.6875 L 12.859375 -43.6875 L 12.859375 -22.28125 L 34.265625 -43.6875 L 43.125 -43.6875 L 24.28125 -25.40625 L 43.5 0 L 35.078125 0 L 19.53125 -20.78125 L 12.859375 -14.296875 Z M 12.859375 0 "/></g></g></g><g fill="#ffffff" fill-opacity="1"><g transform="translate(249.713029, 63.826188)"><g><path d="M 45.8125 -21.84375 C 45.8125 -18.675781 45.289062 -15.726562 44.25 -13 C 43.207031 -10.28125 41.71875 -7.898438 39.78125 -5.859375 C 37.84375 -3.828125 35.570312 -2.238281 32.96875 -1.09375 C 30.375 0.0507812 27.519531 0.625 24.40625 0.625 C 21.28125 0.625 18.40625 0.0507812 15.78125 -1.09375 C 13.164062 -2.238281 10.898438 -3.828125 8.984375 -5.859375 C 7.066406 -7.898438 5.585938 -10.28125 4.546875 -13 C 3.515625 -15.726562 3 -18.675781 3 -21.84375 C 3 -25 3.515625 -27.941406 4.546875 -30.671875 C 5.585938 -33.398438 7.066406 -35.78125 8.984375 -37.8125 C 10.898438 -39.851562 13.164062 -41.445312 15.78125 -42.59375 C 18.40625 -43.738281 21.28125 -44.3125 24.40625 -44.3125 C 27.519531 -44.3125 30.375 -43.738281 32.96875 -42.59375 C 35.570312 -41.445312 37.84375 -39.851562 39.78125 -37.8125 C 41.71875 -35.78125 43.207031 -33.398438 44.25 -30.671875 C 45.289062 -27.941406 45.8125 -25 45.8125 -21.84375 Z M 38.9375 -21.84375 C 38.9375 -24.875 38.3125 -27.585938 37.0625 -29.984375 C 35.820312 -32.378906 34.109375 -34.269531 31.921875 -35.65625 C 29.734375 -37.050781 27.226562 -37.75 24.40625 -37.75 C 21.53125 -37.75 19 -37.050781 16.8125 -35.65625 C 14.632812 -34.269531 12.929688 -32.378906 11.703125 -29.984375 C 10.472656 -27.585938 9.859375 -24.875 9.859375 -21.84375 C 9.859375 -18.800781 10.472656 -16.082031 11.703125 -13.6875 C 12.929688 -11.300781 14.632812 -9.410156 16.8125 -8.015625 C 19 -6.617188 21.53125 -5.921875 24.40625 -5.921875 C 27.226562 -5.921875 29.734375 -6.617188 31.921875 -8.015625 C 34.109375 -9.410156 35.820312 -11.3125 37.0625 -13.71875 C 38.3125 -16.132812 38.9375 -18.84375 38.9375 -21.84375 Z M 38.9375 -21.84375 "/></g></g></g><g fill="#ffffff" fill-opacity="1"><g transform="translate(298.573757, 63.826188)"><g><path d="M 45.8125 -21.84375 C 45.8125 -18.675781 45.289062 -15.726562 44.25 -13 C 43.207031 -10.28125 41.71875 -7.898438 39.78125 -5.859375 C 37.84375 -3.828125 35.570312 -2.238281 32.96875 -1.09375 C 30.375 0.0507812 27.519531 0.625 24.40625 0.625 C 21.28125 0.625 18.40625 0.0507812 15.78125 -1.09375 C 13.164062 -2.238281 10.898438 -3.828125 8.984375 -5.859375 C 7.066406 -7.898438 5.585938 -10.28125 4.546875 -13 C 3.515625 -15.726562 3 -18.675781 3 -21.84375 C 3 -25 3.515625 -27.941406 4.546875 -30.671875 C 5.585938 -33.398438 7.066406 -35.78125 8.984375 -37.8125 C 10.898438 -39.851562 13.164062 -41.445312 15.78125 -42.59375 C 18.40625 -43.738281 21.28125 -44.3125 24.40625 -44.3125 C 27.519531 -44.3125 30.375 -43.738281 32.96875 -42.59375 C 35.570312 -41.445312 37.84375 -39.851562 39.78125 -37.8125 C 41.71875 -35.78125 43.207031 -33.398438 44.25 -30.671875 C 45.289062 -27.941406 45.8125 -25 45.8125 -21.84375 Z M 38.9375 -21.84375 C 38.9375 -24.875 38.3125 -27.585938 37.0625 -29.984375 C 35.820312 -32.378906 34.109375 -34.269531 31.921875 -35.65625 C 29.734375 -37.050781 27.226562 -37.75 24.40625 -37.75 C 21.53125 -37.75 19 -37.050781 16.8125 -35.65625 C 14.632812 -34.269531 12.929688 -32.378906 11.703125 -29.984375 C 10.472656 -27.585938 9.859375 -24.875 9.859375 -21.84375 C 9.859375 -18.800781 10.472656 -16.082031 11.703125 -13.6875 C 12.929688 -11.300781 14.632812 -9.410156 16.8125 -8.015625 C 19 -6.617188 21.53125 -5.921875 24.40625 -5.921875 C 27.226562 -5.921875 29.734375 -6.617188 31.921875 -8.015625 C 34.109375 -9.410156 35.820312 -11.3125 37.0625 -13.71875 C 38.3125 -16.132812 38.9375 -18.84375 38.9375 -21.84375 Z M 38.9375 -21.84375 "/></g></g></g><g fill="#ffffff" fill-opacity="1"><g transform="translate(347.434485, 63.826188)"><g><path d="M 23.21875 -43.6875 C 26.582031 -43.6875 29.546875 -43.113281 32.109375 -41.96875 C 34.671875 -40.820312 36.800781 -39.238281 38.5 -37.21875 C 40.207031 -35.207031 41.5 -32.878906 42.375 -30.234375 C 43.25 -27.585938 43.6875 -24.789062 43.6875 -21.84375 C 43.6875 -17.84375 42.914062 -14.1875 41.375 -10.875 C 39.832031 -7.570312 37.539062 -4.929688 34.5 -2.953125 C 31.46875 -0.984375 27.707031 0 23.21875 0 L 6.109375 0 L 6.109375 -43.6875 Z M 22.90625 -6.484375 C 26.1875 -6.484375 28.847656 -7.179688 30.890625 -8.578125 C 32.929688 -9.972656 34.425781 -11.832031 35.375 -14.15625 C 36.332031 -16.488281 36.8125 -19.050781 36.8125 -21.84375 C 36.8125 -24.59375 36.332031 -27.128906 35.375 -29.453125 C 34.425781 -31.785156 32.929688 -33.65625 30.890625 -35.0625 C 28.847656 -36.476562 26.1875 -37.1875 22.90625 -37.1875 L 12.859375 -37.1875 L 12.859375 -6.484375 Z M 22.90625 -6.484375 "/></g></g></g><g fill="#ffffff" fill-opacity="1"><g transform="translate(392.925365, 63.826188)"><g><path d="M 34.953125 0 L 30.828125 -10.859375 L 12.546875 -10.859375 L 8.421875 0 L 1.5625 0 L 18.46875 -43.6875 L 25.34375 -43.6875 L 42.125 0 Z M 18.34375 -26.078125 L 15.046875 -17.34375 L 28.390625 -17.34375 L 24.96875 -26.328125 C 24.425781 -27.785156 23.882812 -29.359375 23.34375 -31.046875 C 22.800781 -32.734375 22.257812 -34.429688 21.71875 -36.140625 C 21.132812 -34.390625 20.5625 -32.640625 20 -30.890625 C 19.4375 -29.140625 18.882812 -27.535156 18.34375 -26.078125 Z M 18.34375 -26.078125 "/></g></g></g><g fill="#ffffff" fill-opacity="1"><g transform="translate(436.669142, 63.826188)"><g><path d="M 38.5 -29.765625 C 38.5 -27.148438 37.71875 -24.71875 36.15625 -22.46875 C 34.601562 -20.21875 32.578125 -18.550781 30.078125 -17.46875 L 40.25 0.0625 L 32.078125 0 L 22.84375 -16.40625 L 12.859375 -16.40625 L 12.859375 0 L 6.109375 0 L 6.109375 -43.6875 L 24.71875 -43.6875 C 27 -43.6875 29.191406 -43.125 31.296875 -42 C 33.398438 -40.875 35.125 -39.269531 36.46875 -37.1875 C 37.820312 -35.113281 38.5 -32.640625 38.5 -29.765625 Z M 23.59375 -37.1875 L 12.859375 -37.1875 L 12.859375 -22.90625 L 25.34375 -22.90625 C 27.332031 -22.90625 28.878906 -23.609375 29.984375 -25.015625 C 31.085938 -26.429688 31.640625 -28.035156 31.640625 -29.828125 C 31.640625 -32.117188 30.847656 -33.914062 29.265625 -35.21875 C 27.679688 -36.53125 25.789062 -37.1875 23.59375 -37.1875 Z M 23.59375 -37.1875 "/></g></g></g><g fill="#ffffff" fill-opacity="1"><g transform="translate(480.10091, 63.826188)"><g><path d="M 25.34375 0 L 4.5 0 L 4.5 -6.234375 L 11.546875 -6.234375 L 11.546875 -37.4375 L 4.5 -37.4375 L 4.5 -43.6875 L 25.34375 -43.6875 L 25.34375 -37.4375 L 18.28125 -37.4375 L 18.28125 -6.234375 L 25.34375 -6.234375 Z M 25.34375 0 "/></g></g></g></g></g></svg>