<svg xmlns="http://www.w3.org/2000/svg" xmlns:xlink="http://www.w3.org/1999/xlink" width="500" zoomAndPan="magnify" viewBox="0 0 375 374.999991" height="500" preserveAspectRatio="xMidYMid meet" version="1.0"><defs><g/><clipPath id="d804662009"><path d="M 121.253906 105.53125 L 253.746094 105.53125 L 253.746094 201.183594 L 121.253906 201.183594 Z M 121.253906 105.53125 " clip-rule="nonzero"/></clipPath><clipPath id="ed3b729e86"><path d="M 0.253906 0.53125 L 132.746094 0.53125 L 132.746094 96.183594 L 0.253906 96.183594 Z M 0.253906 0.53125 " clip-rule="nonzero"/></clipPath><clipPath id="e6683f4b2e"><rect x="0" width="133" y="0" height="97"/></clipPath><clipPath id="c942a1f28b"><path d="M 99.507812 98.402344 L 275.757812 98.402344 L 275.757812 222.902344 L 99.507812 222.902344 Z M 99.507812 98.402344 " clip-rule="nonzero"/></clipPath><clipPath id="69c76ab705"><path d="M 136.050781 113.675781 L 238.800781 113.675781 L 238.800781 193 L 136.050781 193 Z M 136.050781 113.675781 " clip-rule="nonzero"/></clipPath></defs><g clip-path="url(#d804662009)"><g transform="matrix(1, 0, 0, 1, 121, 105)"><g clip-path="url(#e6683f4b2e)"><g clip-path="url(#ed3b729e86)"><path fill="#000000" d="M 0.253906 0.53125 L 132.898438 0.53125 L 132.898438 96.183594 L 0.253906 96.183594 Z M 0.253906 0.53125 " fill-opacity="1" fill-rule="nonzero"/></g></g></g></g><g clip-path="url(#c942a1f28b)"><path fill="#ffffff" d="M 246.15625 208.421875 C 254.257812 208.421875 260.75 201.859375 260.75 193.757812 L 260.820312 113.101562 C 260.820312 105 254.257812 98.433594 246.15625 98.433594 L 128.835938 98.433594 C 120.734375 98.433594 114.171875 105 114.171875 113.101562 L 114.171875 193.757812 C 114.171875 201.859375 120.734375 208.421875 128.835938 208.421875 L 99.507812 208.421875 C 99.507812 216.527344 106.070312 223.089844 114.171875 223.089844 L 260.820312 223.089844 C 268.925781 223.089844 275.488281 216.527344 275.488281 208.421875 Z M 128.835938 113.101562 L 246.15625 113.101562 L 246.15625 193.757812 L 128.835938 193.757812 Z M 187.496094 215.753906 C 183.464844 215.753906 180.164062 212.457031 180.164062 208.421875 C 180.164062 204.390625 183.464844 201.089844 187.496094 201.089844 C 191.53125 201.089844 194.828125 204.390625 194.828125 208.421875 C 194.828125 212.457031 191.53125 215.753906 187.496094 215.753906 Z M 187.496094 215.753906 " fill-opacity="1" fill-rule="nonzero"/></g><g clip-path="url(#69c76ab705)"><path fill="#ffffff" d="M 237.484375 172.796875 C 236.867188 172.957031 236.242188 173.039062 235.605469 173.039062 C 232.285156 173.039062 228.945312 173.066406 226.152344 170.941406 C 226.054688 171.089844 225.917969 171.1875 225.746094 171.234375 L 225.746094 173.761719 L 219.289062 173.761719 C 219.226562 173.433594 219.15625 173.117188 219.085938 172.804688 C 219.042969 172.617188 219 172.429688 218.964844 172.242188 L 218.945312 172.15625 C 218.75 171.234375 218.675781 170.804688 218.976562 170.296875 C 219.554688 169.332031 219.621094 167.777344 219.128906 166.683594 C 217.433594 162.921875 215.511719 159.910156 213.242188 157.480469 C 210.652344 154.65625 207.550781 152.609375 203.9375 151.335938 C 201.28125 150.386719 198.40625 149.925781 195.144531 149.925781 C 194.1875 149.925781 193.210938 149.964844 192.152344 150.039062 C 190.558594 150.160156 188.863281 150.273438 187.210938 150.273438 C 186.527344 150.273438 185.898438 150.257812 185.285156 150.214844 C 184.660156 150.175781 183.867188 149.722656 183.09375 149.285156 C 182.945312 149.199219 182.792969 149.113281 182.644531 149.03125 C 180.511719 147.847656 178.480469 147.273438 176.445312 147.273438 C 176.179688 147.273438 175.90625 147.28125 175.640625 147.304688 C 175.363281 147.324219 175.085938 147.332031 174.820312 147.332031 C 173.296875 147.355469 171.871094 146.984375 170.542969 146.230469 C 170.472656 146.1875 170.421875 146.15625 170.378906 146.128906 C 170.765625 144.351562 170.1875 142.757812 168.800781 141.75 C 168.066406 141.203125 167.242188 140.921875 166.328125 140.90625 C 165.566406 140.902344 164.875 141.125 164.257812 141.570312 C 163.574219 142.0625 163.121094 142.71875 162.683594 143.351562 C 162.628906 143.429688 162.570312 143.507812 162.515625 143.589844 C 162.476562 143.53125 162.445312 143.46875 162.417969 143.402344 C 161.976562 142.371094 160.808594 141.722656 159.945312 141.476562 C 159.671875 141.398438 159.390625 141.359375 159.105469 141.359375 C 158.621094 141.363281 158.160156 141.472656 157.722656 141.695312 C 157.289062 141.914062 156.929688 142.222656 156.640625 142.617188 C 156.316406 143.050781 156.109375 143.539062 156.015625 144.074219 C 155.925781 144.609375 155.957031 145.136719 156.117188 145.65625 C 156.160156 145.78125 156.1875 145.914062 156.191406 146.046875 C 156.054688 146.179688 155.90625 146.292969 155.742188 146.382812 C 154.109375 147.410156 153.195312 148.90625 153.097656 150.710938 C 153.078125 151.085938 152.746094 151.347656 151.820312 151.886719 C 151.75 151.929688 151.683594 151.96875 151.613281 152.007812 C 151.164062 152.246094 150.695312 152.4375 150.207031 152.585938 C 150.03125 152.648438 149.855469 152.707031 149.679688 152.769531 C 148.855469 153.066406 148.316406 153.550781 148.078125 154.210938 C 147.84375 154.90625 147.929688 155.5625 148.335938 156.179688 C 148.511719 156.492188 148.671875 156.816406 148.808594 157.148438 C 149.371094 158.414062 150.140625 160.152344 152.417969 160.585938 L 152.648438 160.632812 C 153.242188 160.769531 153.84375 160.84375 154.453125 160.863281 C 154.519531 160.863281 154.582031 160.859375 154.648438 160.855469 C 154.71875 160.855469 154.78125 160.855469 154.851562 160.855469 C 156.0625 160.855469 156.882812 161.285156 157.511719 162.253906 L 157.566406 162.34375 C 157.90625 162.871094 158.535156 163.851562 159.863281 163.851562 L 159.902344 163.851562 C 159.988281 163.957031 160.078125 164.070312 160.167969 164.1875 C 160.355469 164.429688 160.554688 164.679688 160.789062 164.933594 C 160.804688 164.953125 160.847656 165.007812 160.882812 165.050781 C 161.117188 165.351562 161.585938 165.953125 162.40625 166.03125 C 162.765625 166.953125 162.890625 167.960938 162.945312 169.175781 C 162.976562 169.859375 163.046875 170.535156 163.117188 171.195312 C 163.222656 172.046875 163.28125 172.902344 163.289062 173.761719 L 149.226562 173.761719 C 149.234375 173.75 149.238281 173.738281 149.25 173.726562 L 149.25 168.179688 C 146.375 170.636719 142.871094 170.605469 139.390625 170.605469 C 138.753906 170.601562 138.125 170.519531 137.507812 170.359375 C 136.257812 170.050781 136.054688 169.394531 136.917969 168.4375 C 138.78125 166.4375 140.265625 164.1875 141.378906 161.691406 C 141.425781 161.578125 141.476562 161.457031 141.589844 161.175781 C 141.046875 161.519531 140.484375 161.828125 139.902344 162.109375 C 139.445312 162.324219 138.964844 162.4375 138.460938 162.445312 C 137.507812 162.414062 137.253906 161.804688 137.832031 161.058594 C 138.609375 160.050781 139.476562 159.105469 140.238281 158.085938 C 141.191406 156.839844 142.054688 155.53125 142.828125 154.164062 C 142.179688 154.476562 141.539062 154.808594 140.878906 155.082031 C 140.511719 155.246094 140.128906 155.339844 139.730469 155.367188 C 139.378906 155.335938 139.039062 155.261719 138.707031 155.144531 C 138.804688 154.8125 138.828125 154.429688 139.015625 154.160156 C 139.710938 153.121094 140.578125 152.1875 141.160156 151.101562 C 142.296875 148.957031 143.277344 146.734375 144.320312 144.546875 C 144.25 144.503906 142.867188 145.570312 142.238281 146.125 C 142.019531 146.320312 141.777344 146.480469 141.507812 146.601562 C 140.851562 146.871094 140.488281 146.582031 140.667969 145.90625 C 140.792969 145.476562 140.984375 145.078125 141.246094 144.710938 C 142.238281 143.179688 143.269531 141.664062 144.261719 140.125 C 144.53125 139.628906 144.773438 139.117188 144.988281 138.59375 C 144.464844 138.84375 144.121094 139.121094 143.753906 139.164062 C 143.324219 139.199219 142.488281 138.113281 142.691406 137.804688 C 143.84375 136.023438 145.09375 134.304688 146.222656 132.511719 C 146.785156 131.628906 147.160156 130.640625 147.625 129.699219 C 147.570312 129.660156 147.515625 129.621094 147.464844 129.578125 C 147.195312 129.796875 143.890625 129.988281 144.121094 129.664062 C 145.570312 127.625 146.929688 125.535156 147.75 123.152344 C 147.863281 122.832031 147.941406 122.503906 148.015625 122.28125 C 147.484375 122.3125 146.996094 122.339844 146.515625 122.363281 C 146.699219 121.902344 146.917969 121.453125 147.171875 121.023438 C 148.484375 119.050781 149.605469 116.984375 150.246094 114.683594 C 150.308594 114.46875 150.527344 113.738281 150.53125 113.722656 C 150.535156 113.726562 150.535156 113.730469 150.535156 113.734375 C 150.539062 113.730469 150.539062 113.726562 150.542969 113.722656 C 150.546875 113.738281 150.765625 114.46875 150.824219 114.683594 C 151.464844 116.984375 152.589844 119.050781 153.902344 121.023438 C 154.15625 121.457031 154.375 121.902344 154.558594 122.363281 C 154.078125 122.339844 153.589844 122.3125 153.058594 122.28125 C 153.128906 122.503906 153.210938 122.832031 153.320312 123.152344 C 154.140625 125.535156 155.503906 127.625 156.953125 129.664062 C 157.183594 129.988281 153.878906 129.796875 153.609375 129.578125 C 153.554688 129.621094 153.5 129.660156 153.449219 129.699219 C 153.910156 130.640625 154.289062 131.628906 154.851562 132.511719 C 155.421875 133.421875 156.027344 134.3125 156.636719 135.203125 C 156.554688 135.0625 156.546875 134.914062 156.609375 134.765625 C 158.058594 132.726562 159.417969 130.636719 160.238281 128.253906 C 160.351562 127.933594 160.433594 127.605469 160.503906 127.378906 C 159.972656 127.414062 159.484375 127.441406 159.003906 127.464844 C 159.1875 127.003906 159.40625 126.554688 159.65625 126.125 C 160.96875 124.152344 162.097656 122.082031 162.734375 119.785156 C 162.796875 119.570312 163.015625 118.839844 163.019531 118.824219 C 163.019531 118.828125 163.019531 118.832031 163.027344 118.835938 C 163.027344 118.832031 163.027344 118.828125 163.03125 118.824219 C 163.03125 118.839844 163.25 119.570312 163.316406 119.785156 C 163.957031 122.082031 165.078125 124.152344 166.390625 126.125 C 166.644531 126.554688 166.863281 127.003906 167.046875 127.464844 C 166.566406 127.441406 166.078125 127.414062 165.546875 127.378906 C 165.621094 127.605469 165.699219 127.933594 165.8125 128.253906 C 166.632812 130.636719 167.992188 132.726562 169.441406 134.765625 C 169.671875 135.089844 165.992188 134.761719 165.9375 134.800781 C 166.402344 135.742188 169.621094 139.808594 170.773438 141.59375 C 170.800781 141.636719 172.945312 139.503906 173.410156 138.5625 C 173.355469 138.523438 173.304688 138.484375 173.25 138.441406 C 172.980469 138.660156 169.675781 138.851562 169.90625 138.527344 C 171.355469 136.488281 172.714844 134.398438 173.535156 132.011719 C 173.648438 131.695312 173.726562 131.367188 173.796875 131.140625 C 173.269531 131.175781 172.78125 131.203125 172.296875 131.226562 C 172.484375 130.765625 172.703125 130.316406 172.953125 129.886719 C 174.265625 127.914062 175.390625 125.84375 176.03125 123.542969 C 176.09375 123.332031 176.3125 122.601562 176.3125 122.585938 C 176.320312 122.589844 176.320312 122.59375 176.320312 122.59375 C 176.324219 122.59375 176.324219 122.589844 176.328125 122.585938 C 176.328125 122.601562 176.546875 123.332031 176.609375 123.542969 C 177.074219 125.148438 177.730469 126.664062 178.582031 128.101562 C 179.640625 126.5625 180.492188 124.910156 181.132812 123.152344 C 181.246094 122.832031 181.324219 122.503906 181.394531 122.28125 C 180.867188 122.3125 180.378906 122.339844 179.898438 122.363281 C 180.082031 121.902344 180.300781 121.457031 180.550781 121.023438 C 181.867188 119.050781 182.988281 116.984375 183.628906 114.683594 C 183.691406 114.46875 183.910156 113.738281 183.914062 113.722656 C 183.917969 113.726562 183.917969 113.730469 183.917969 113.734375 C 183.921875 113.730469 183.921875 113.726562 183.925781 113.722656 C 183.929688 113.738281 184.148438 114.46875 184.207031 114.683594 C 184.847656 116.984375 185.972656 119.050781 187.285156 121.023438 C 187.539062 121.453125 187.757812 121.902344 187.941406 122.363281 C 187.460938 122.339844 186.96875 122.3125 186.441406 122.28125 C 186.511719 122.503906 186.59375 122.832031 186.707031 123.152344 C 187.527344 125.535156 188.886719 127.625 190.335938 129.664062 C 190.5625 129.988281 187.261719 129.796875 186.992188 129.578125 C 186.9375 129.621094 186.886719 129.660156 186.832031 129.699219 C 187.296875 130.640625 187.671875 131.628906 188.234375 132.511719 C 189.300781 134.210938 190.480469 135.84375 191.585938 137.535156 C 192.167969 136.679688 192.746094 135.824219 193.296875 134.949219 C 193.859375 134.066406 194.234375 133.074219 194.699219 132.136719 C 194.644531 132.097656 194.59375 132.058594 194.539062 132.019531 C 194.269531 132.238281 190.964844 132.429688 191.195312 132.101562 C 192.644531 130.066406 194.003906 127.976562 194.824219 125.589844 C 194.9375 125.273438 195.015625 124.941406 195.085938 124.714844 C 194.558594 124.753906 194.066406 124.78125 193.585938 124.800781 C 193.773438 124.339844 193.992188 123.890625 194.242188 123.460938 C 195.554688 121.488281 196.679688 119.417969 197.320312 117.121094 C 197.382812 116.90625 197.601562 116.175781 197.601562 116.164062 C 197.609375 116.164062 197.609375 116.167969 197.609375 116.167969 C 197.613281 116.167969 197.613281 116.164062 197.617188 116.164062 C 197.617188 116.175781 197.835938 116.90625 197.898438 117.121094 C 198.539062 119.417969 199.664062 121.488281 200.976562 123.460938 C 201.230469 123.890625 201.449219 124.335938 201.632812 124.800781 C 201.152344 124.78125 200.660156 124.753906 200.132812 124.714844 C 200.203125 124.941406 200.28125 125.273438 200.398438 125.589844 C 201.039062 127.355469 201.894531 129.015625 202.964844 130.5625 C 203.484375 129.546875 203.910156 128.492188 204.238281 127.398438 C 203.816406 127.425781 203.414062 127.445312 203.015625 127.464844 C 203.203125 127.003906 203.421875 126.554688 203.671875 126.125 C 204.988281 124.152344 206.113281 122.082031 206.753906 119.785156 C 206.8125 119.570312 207.03125 118.839844 207.035156 118.824219 C 207.039062 118.828125 207.039062 118.832031 207.039062 118.835938 C 207.042969 118.832031 207.042969 118.828125 207.046875 118.824219 C 207.050781 118.839844 207.269531 119.570312 207.328125 119.785156 C 207.96875 122.082031 209.09375 124.152344 210.40625 126.125 C 210.660156 126.554688 210.878906 127.003906 211.0625 127.464844 C 210.582031 127.441406 210.089844 127.414062 209.566406 127.378906 C 209.636719 127.605469 209.714844 127.933594 209.828125 128.253906 C 209.949219 128.609375 210.089844 128.957031 210.230469 129.300781 C 211.421875 127.519531 212.320312 125.597656 212.933594 123.542969 C 212.996094 123.332031 213.214844 122.601562 213.214844 122.585938 C 213.21875 122.589844 213.21875 122.59375 213.222656 122.59375 C 213.222656 122.59375 213.222656 122.589844 213.230469 122.585938 C 213.230469 122.601562 213.449219 123.332031 213.511719 123.542969 C 214.152344 125.84375 215.277344 127.914062 216.589844 129.886719 C 216.839844 130.316406 217.058594 130.765625 217.246094 131.226562 C 216.761719 131.203125 216.273438 131.175781 215.746094 131.140625 C 215.816406 131.367188 215.894531 131.695312 216.007812 132.011719 C 216.679688 133.84375 217.570312 135.558594 218.6875 137.15625 C 219.183594 136.425781 219.675781 135.695312 220.144531 134.949219 C 220.707031 134.066406 221.082031 133.078125 221.546875 132.136719 C 221.492188 132.097656 221.441406 132.058594 221.386719 132.019531 C 221.117188 132.238281 217.8125 132.429688 218.042969 132.101562 C 219.492188 130.066406 220.851562 127.976562 221.671875 125.589844 C 221.785156 125.273438 221.867188 124.941406 221.9375 124.714844 C 221.40625 124.753906 220.917969 124.78125 220.4375 124.800781 C 220.621094 124.339844 220.839844 123.890625 221.089844 123.460938 C 222.402344 121.488281 223.53125 119.417969 224.167969 117.121094 C 224.230469 116.90625 224.449219 116.175781 224.453125 116.164062 C 224.453125 116.164062 224.453125 116.167969 224.460938 116.167969 C 224.460938 116.167969 224.460938 116.164062 224.464844 116.164062 C 224.464844 116.175781 224.683594 116.90625 224.75 117.121094 C 225.390625 119.417969 226.511719 121.488281 227.824219 123.460938 C 228.078125 123.890625 228.296875 124.339844 228.480469 124.800781 C 228 124.78125 227.507812 124.753906 226.980469 124.714844 C 227.054688 124.941406 227.132812 125.273438 227.246094 125.589844 C 228.066406 127.976562 229.425781 130.066406 230.875 132.101562 C 231.105469 132.429688 227.796875 132.238281 227.53125 132.019531 C 227.476562 132.058594 227.425781 132.097656 227.371094 132.136719 C 227.835938 133.078125 228.207031 134.066406 228.773438 134.949219 C 229.898438 136.742188 231.152344 138.457031 232.304688 140.246094 C 232.507812 140.546875 230.527344 141.28125 230.007812 141.027344 C 230.222656 141.554688 230.464844 142.066406 230.734375 142.5625 C 231.722656 144.101562 232.757812 145.613281 233.75 147.148438 C 234.007812 147.515625 234.199219 147.914062 234.328125 148.34375 C 234.503906 149.015625 234.144531 149.3125 233.488281 149.039062 C 233.21875 148.917969 232.976562 148.761719 232.757812 148.5625 C 232.128906 148.007812 230.746094 146.941406 230.675781 146.984375 C 231.71875 149.167969 235.285156 155.558594 235.980469 156.59375 C 236.164062 156.867188 236.191406 157.25 236.289062 157.582031 C 235.957031 157.699219 235.617188 157.773438 235.265625 157.804688 C 234.867188 157.777344 234.484375 157.683594 234.117188 157.523438 C 233.453125 157.246094 232.8125 156.914062 232.167969 156.601562 C 232.941406 157.96875 233.804688 159.277344 234.757812 160.527344 C 235.519531 161.542969 236.382812 162.488281 237.164062 163.496094 C 237.742188 164.242188 237.484375 164.847656 236.535156 164.882812 C 236.03125 164.875 235.550781 164.761719 235.09375 164.546875 C 234.511719 164.265625 233.949219 163.957031 233.402344 163.613281 C 233.519531 163.894531 233.570312 164.015625 233.613281 164.128906 C 234.726562 166.625 236.210938 168.875 238.074219 170.875 C 238.9375 171.828125 238.734375 172.484375 237.484375 172.796875 Z M 170.765625 147.457031 C 170.765625 147.460938 170.765625 147.460938 170.769531 147.464844 C 170.769531 147.460938 170.769531 147.457031 170.773438 147.453125 C 170.769531 147.453125 170.765625 147.457031 170.765625 147.457031 Z M 221.25 181.808594 C 219.261719 179.703125 218.363281 177.125 217.914062 174.335938 C 217.816406 173.734375 217.664062 173.140625 217.539062 172.542969 C 217.324219 171.53125 217.101562 170.597656 217.726562 169.550781 C 218.070312 168.972656 218.085938 167.917969 217.800781 167.28125 C 214.820312 160.667969 210.574219 155.257812 203.445312 152.707031 C 199.8125 151.40625 196.074219 151.210938 192.261719 151.492188 C 189.910156 151.667969 187.535156 151.820312 185.191406 151.667969 C 184.078125 151.597656 182.96875 150.875 181.9375 150.304688 C 180 149.230469 177.976562 148.589844 175.75 148.753906 C 173.640625 148.957031 171.664062 148.535156 169.820312 147.492188 C 169.109375 147.085938 168.75 146.75 168.953125 145.824219 C 169.191406 144.738281 168.941406 143.648438 167.945312 142.933594 C 167.050781 142.285156 165.976562 142.128906 165.105469 142.753906 C 164.402344 143.261719 163.964844 144.136719 163.289062 144.996094 C 162.539062 145.105469 161.625 145.238281 161.078125 143.976562 C 160.863281 143.472656 160.132812 143.042969 159.550781 142.878906 C 158.261719 142.515625 157.09375 143.792969 157.515625 145.25 C 157.871094 146.464844 157.496094 147.003906 156.519531 147.617188 C 155.40625 148.316406 154.632812 149.324219 154.550781 150.789062 C 154.480469 152.105469 153.332031 152.683594 152.355469 153.261719 C 151.6875 153.65625 150.910156 153.875 150.171875 154.140625 C 149.507812 154.378906 149.195312 154.769531 149.589844 155.4375 C 150.421875 156.84375 150.652344 158.765625 152.691406 159.15625 C 153.316406 159.308594 153.949219 159.390625 154.59375 159.402344 C 156.367188 159.335938 157.753906 159.957031 158.730469 161.460938 C 159.085938 162.007812 159.402344 162.601562 160.257812 162.328125 C 160.398438 162.285156 160.675781 162.523438 160.824219 162.691406 C 161.1875 163.09375 161.488281 163.546875 161.855469 163.945312 C 162.199219 164.316406 162.476562 165.007812 163.109375 164.226562 C 164.128906 165.808594 164.324219 167.464844 164.402344 169.105469 C 164.515625 171.570312 165.167969 174.074219 164.308594 176.492188 C 163.800781 177.945312 163.117188 179.308594 162.261719 180.582031 C 161.039062 182.359375 159.558594 183.953125 159.210938 186.199219 C 158.855469 188.515625 160.292969 191.601562 162.230469 192.269531 C 162.898438 192.5 163.84375 192.515625 164.449219 192.207031 C 165.210938 191.824219 164.992188 190.914062 164.792969 190.148438 C 164.300781 188.234375 164.382812 188.144531 166.3125 187.472656 C 169.191406 186.46875 171.652344 184.808594 173.84375 182.703125 C 174.445312 182.125 174.402344 181.714844 173.933594 181.0625 C 170.914062 176.863281 168.6875 172.296875 167.734375 167.167969 C 167.652344 166.726562 167.628906 166.277344 167.605469 166.0625 C 169.160156 169.527344 170.691406 173.21875 172.460938 176.789062 C 173.742188 179.367188 175.414062 181.75 176.761719 184.296875 C 177.3125 185.433594 177.675781 186.628906 177.855469 187.878906 C 178.085938 189.242188 177.757812 189.523438 176.410156 189.925781 C 175.78125 190.082031 175.195312 190.339844 174.65625 190.691406 C 174.289062 190.996094 174.121094 191.386719 174.148438 191.863281 C 174.207031 192.144531 174.804688 192.496094 175.171875 192.507812 C 177.574219 192.570312 179.980469 192.558594 182.386719 192.550781 C 183.714844 192.546875 184.398438 191.675781 184.78125 190.558594 C 186.085938 186.742188 186.375 182.8125 185.875 178.835938 C 185.589844 176.5625 185.132812 174.308594 184.757812 172.046875 C 184.847656 172.023438 186.199219 176.066406 186.816406 178.105469 C 186.914062 178.4375 187.140625 178.941406 187.378906 178.984375 C 189.632812 179.402344 191.902344 179.738281 194.164062 180.089844 C 195.191406 180.246094 195.757812 179.902344 195.613281 178.757812 C 195.628906 178.527344 195.714844 178.324219 195.871094 178.15625 C 195.636719 181.53125 196.707031 184.707031 197.25 187.960938 C 197.476562 189.300781 197.269531 189.574219 195.984375 189.933594 C 195.417969 190.058594 194.894531 190.277344 194.40625 190.585938 C 194.085938 190.820312 193.726562 191.382812 193.808594 191.683594 C 193.992188 192.15625 194.320312 192.476562 194.796875 192.648438 C 195.492188 192.855469 196.199219 192.949219 196.925781 192.929688 C 199.160156 192.910156 201.390625 192.855469 203.625 192.757812 C 204.90625 192.703125 205.394531 192.269531 205.550781 191.003906 C 206.164062 186.046875 208.105469 181.691406 211.195312 177.777344 C 212.320312 176.390625 213.210938 174.867188 213.867188 173.207031 C 214.523438 171.546875 214.914062 169.824219 215.039062 168.042969 C 215.71875 170.105469 215.632812 171.289062 214.757812 173.789062 C 213.945312 176.105469 212.566406 178.070312 211.0625 179.984375 C 210.027344 181.304688 209.164062 182.765625 208.273438 184.195312 C 207.902344 184.789062 208.078125 185.300781 208.808594 185.515625 C 210.835938 186.117188 212.863281 186.707031 214.886719 187.320312 C 215.375 187.441406 215.835938 187.628906 216.269531 187.882812 C 216.347656 187.941406 216.421875 188.007812 216.484375 188.082031 C 216.546875 188.160156 216.597656 188.242188 216.640625 188.328125 C 216.683594 188.417969 216.714844 188.511719 216.730469 188.609375 C 216.75 188.703125 216.757812 188.800781 216.75 188.898438 C 216.742188 188.996094 216.722656 189.09375 216.691406 189.1875 C 216.664062 189.28125 216.621094 189.367188 216.566406 189.449219 C 216.511719 189.53125 216.449219 189.605469 216.378906 189.671875 C 216.304688 189.738281 216.226562 189.796875 216.140625 189.839844 C 215.761719 190.050781 215.285156 190.128906 214.984375 190.40625 C 214.652344 190.71875 214.191406 191.277344 214.285156 191.570312 C 214.410156 191.957031 214.980469 192.371094 215.421875 192.460938 C 217.960938 192.980469 220.15625 192.476562 221.59375 190.085938 C 222.3125 188.886719 223.0625 187.695312 223.714844 186.457031 C 224.121094 185.695312 223.96875 184.910156 223.390625 184.242188 C 222.683594 183.425781 221.992188 182.59375 221.25 181.808594 Z M 221.25 181.808594 " fill-opacity="1" fill-rule="nonzero"/></g><g fill="#ffffff" fill-opacity="1"><g transform="translate(82.147872, 256.710276)"><g><path d="M 5.328125 0 L 2.53125 0 L 2.53125 -18.125 L 5.328125 -18.125 L 5.328125 -9.25 L 14.21875 -18.125 L 17.890625 -18.125 L 10.078125 -10.53125 L 18.046875 0 L 14.546875 0 L 8.109375 -8.625 L 5.328125 -5.921875 Z M 5.328125 0 "/></g></g></g><g fill="#ffffff" fill-opacity="1"><g transform="translate(99.957773, 256.710276)"><g><path d="M 19 -9.0625 C 19 -7.75 18.78125 -6.523438 18.34375 -5.390625 C 17.914062 -4.265625 17.300781 -3.28125 16.5 -2.4375 C 15.695312 -1.59375 14.753906 -0.929688 13.671875 -0.453125 C 12.597656 0.0234375 11.414062 0.265625 10.125 0.265625 C 8.832031 0.265625 7.640625 0.0234375 6.546875 -0.453125 C 5.460938 -0.929688 4.519531 -1.59375 3.71875 -2.4375 C 2.925781 -3.28125 2.316406 -4.265625 1.890625 -5.390625 C 1.460938 -6.523438 1.25 -7.75 1.25 -9.0625 C 1.25 -10.375 1.460938 -11.59375 1.890625 -12.71875 C 2.316406 -13.851562 2.925781 -14.84375 3.71875 -15.6875 C 4.519531 -16.53125 5.460938 -17.1875 6.546875 -17.65625 C 7.640625 -18.132812 8.832031 -18.375 10.125 -18.375 C 11.414062 -18.375 12.597656 -18.132812 13.671875 -17.65625 C 14.753906 -17.1875 15.695312 -16.53125 16.5 -15.6875 C 17.300781 -14.84375 17.914062 -13.851562 18.34375 -12.71875 C 18.78125 -11.59375 19 -10.375 19 -9.0625 Z M 16.15625 -9.0625 C 16.15625 -10.320312 15.894531 -11.445312 15.375 -12.4375 C 14.863281 -13.425781 14.15625 -14.207031 13.25 -14.78125 C 12.34375 -15.363281 11.300781 -15.65625 10.125 -15.65625 C 8.9375 -15.65625 7.890625 -15.363281 6.984375 -14.78125 C 6.078125 -14.207031 5.367188 -13.425781 4.859375 -12.4375 C 4.347656 -11.445312 4.09375 -10.320312 4.09375 -9.0625 C 4.09375 -7.800781 4.347656 -6.671875 4.859375 -5.671875 C 5.367188 -4.679688 6.078125 -3.894531 6.984375 -3.3125 C 7.890625 -2.738281 8.9375 -2.453125 10.125 -2.453125 C 11.300781 -2.453125 12.34375 -2.738281 13.25 -3.3125 C 14.15625 -3.894531 14.863281 -4.6875 15.375 -5.6875 C 15.894531 -6.695312 16.15625 -7.820312 16.15625 -9.0625 Z M 16.15625 -9.0625 "/></g></g></g><g fill="#ffffff" fill-opacity="1"><g transform="translate(120.227066, 256.710276)"><g><path d="M 15.96875 -12.34375 C 15.96875 -11.257812 15.644531 -10.25 15 -9.3125 C 14.351562 -8.382812 13.515625 -7.695312 12.484375 -7.25 L 16.703125 0.03125 L 13.3125 0 L 9.46875 -6.8125 L 5.328125 -6.8125 L 5.328125 0 L 2.53125 0 L 2.53125 -18.125 L 10.25 -18.125 C 11.195312 -18.125 12.109375 -17.890625 12.984375 -17.421875 C 13.859375 -16.953125 14.570312 -16.285156 15.125 -15.421875 C 15.6875 -14.566406 15.96875 -13.539062 15.96875 -12.34375 Z M 9.78125 -15.4375 L 5.328125 -15.4375 L 5.328125 -9.5 L 10.515625 -9.5 C 11.335938 -9.5 11.976562 -9.789062 12.4375 -10.375 C 12.894531 -10.96875 13.125 -11.632812 13.125 -12.375 C 13.125 -13.320312 12.796875 -14.066406 12.140625 -14.609375 C 11.484375 -15.160156 10.695312 -15.4375 9.78125 -15.4375 Z M 9.78125 -15.4375 "/></g></g></g><g fill="#ffffff" fill-opacity="1"><g transform="translate(138.244219, 256.710276)"><g><path d="M 9.921875 -18.125 C 10.878906 -18.125 11.765625 -17.875 12.578125 -17.375 C 13.390625 -16.882812 14.035156 -16.222656 14.515625 -15.390625 C 15.003906 -14.554688 15.25 -13.613281 15.25 -12.5625 C 15.25 -11.519531 15.003906 -10.570312 14.515625 -9.71875 C 14.035156 -8.863281 13.390625 -8.1875 12.578125 -7.6875 C 11.765625 -7.1875 10.878906 -6.9375 9.921875 -6.9375 L 5.328125 -6.9375 L 5.328125 0 L 2.53125 0 L 2.53125 -18.125 Z M 9.859375 -9.625 C 10.328125 -9.625 10.75 -9.757812 11.125 -10.03125 C 11.507812 -10.300781 11.816406 -10.65625 12.046875 -11.09375 C 12.285156 -11.53125 12.40625 -12.019531 12.40625 -12.5625 C 12.40625 -13.375 12.15625 -14.054688 11.65625 -14.609375 C 11.15625 -15.160156 10.554688 -15.4375 9.859375 -15.4375 L 5.328125 -15.4375 L 5.328125 -9.625 Z M 9.859375 -9.625 "/></g></g></g><g fill="#ffffff" fill-opacity="1"><g transform="translate(154.682282, 256.710276)"><g><path d="M 10.515625 0 L 1.859375 0 L 1.859375 -2.59375 L 4.796875 -2.59375 L 4.796875 -15.53125 L 1.859375 -15.53125 L 1.859375 -18.125 L 10.515625 -18.125 L 10.515625 -15.53125 L 7.59375 -15.53125 L 7.59375 -2.59375 L 10.515625 -2.59375 Z M 10.515625 0 "/></g></g></g><g fill="#ffffff" fill-opacity="1"><g transform="translate(167.082012, 256.710276)"><g><path d="M 5.328125 0 L 2.53125 0 L 2.53125 -18.125 L 5.328125 -18.125 L 5.328125 -9.25 L 14.21875 -18.125 L 17.890625 -18.125 L 10.078125 -10.53125 L 18.046875 0 L 14.546875 0 L 8.109375 -8.625 L 5.328125 -5.921875 Z M 5.328125 0 "/></g></g></g><g fill="#ffffff" fill-opacity="1"><g transform="translate(184.891913, 256.710276)"><g><path d="M 19 -9.0625 C 19 -7.75 18.78125 -6.523438 18.34375 -5.390625 C 17.914062 -4.265625 17.300781 -3.28125 16.5 -2.4375 C 15.695312 -1.59375 14.753906 -0.929688 13.671875 -0.453125 C 12.597656 0.0234375 11.414062 0.265625 10.125 0.265625 C 8.832031 0.265625 7.640625 0.0234375 6.546875 -0.453125 C 5.460938 -0.929688 4.519531 -1.59375 3.71875 -2.4375 C 2.925781 -3.28125 2.316406 -4.265625 1.890625 -5.390625 C 1.460938 -6.523438 1.25 -7.75 1.25 -9.0625 C 1.25 -10.375 1.460938 -11.59375 1.890625 -12.71875 C 2.316406 -13.851562 2.925781 -14.84375 3.71875 -15.6875 C 4.519531 -16.53125 5.460938 -17.1875 6.546875 -17.65625 C 7.640625 -18.132812 8.832031 -18.375 10.125 -18.375 C 11.414062 -18.375 12.597656 -18.132812 13.671875 -17.65625 C 14.753906 -17.1875 15.695312 -16.53125 16.5 -15.6875 C 17.300781 -14.84375 17.914062 -13.851562 18.34375 -12.71875 C 18.78125 -11.59375 19 -10.375 19 -9.0625 Z M 16.15625 -9.0625 C 16.15625 -10.320312 15.894531 -11.445312 15.375 -12.4375 C 14.863281 -13.425781 14.15625 -14.207031 13.25 -14.78125 C 12.34375 -15.363281 11.300781 -15.65625 10.125 -15.65625 C 8.9375 -15.65625 7.890625 -15.363281 6.984375 -14.78125 C 6.078125 -14.207031 5.367188 -13.425781 4.859375 -12.4375 C 4.347656 -11.445312 4.09375 -10.320312 4.09375 -9.0625 C 4.09375 -7.800781 4.347656 -6.671875 4.859375 -5.671875 C 5.367188 -4.679688 6.078125 -3.894531 6.984375 -3.3125 C 7.890625 -2.738281 8.9375 -2.453125 10.125 -2.453125 C 11.300781 -2.453125 12.34375 -2.738281 13.25 -3.3125 C 14.15625 -3.894531 14.863281 -4.6875 15.375 -5.6875 C 15.894531 -6.695312 16.15625 -7.820312 16.15625 -9.0625 Z M 16.15625 -9.0625 "/></g></g></g><g fill="#ffffff" fill-opacity="1"><g transform="translate(205.161206, 256.710276)"><g><path d="M 19 -9.0625 C 19 -7.75 18.78125 -6.523438 18.34375 -5.390625 C 17.914062 -4.265625 17.300781 -3.28125 16.5 -2.4375 C 15.695312 -1.59375 14.753906 -0.929688 13.671875 -0.453125 C 12.597656 0.0234375 11.414062 0.265625 10.125 0.265625 C 8.832031 0.265625 7.640625 0.0234375 6.546875 -0.453125 C 5.460938 -0.929688 4.519531 -1.59375 3.71875 -2.4375 C 2.925781 -3.28125 2.316406 -4.265625 1.890625 -5.390625 C 1.460938 -6.523438 1.25 -7.75 1.25 -9.0625 C 1.25 -10.375 1.460938 -11.59375 1.890625 -12.71875 C 2.316406 -13.851562 2.925781 -14.84375 3.71875 -15.6875 C 4.519531 -16.53125 5.460938 -17.1875 6.546875 -17.65625 C 7.640625 -18.132812 8.832031 -18.375 10.125 -18.375 C 11.414062 -18.375 12.597656 -18.132812 13.671875 -17.65625 C 14.753906 -17.1875 15.695312 -16.53125 16.5 -15.6875 C 17.300781 -14.84375 17.914062 -13.851562 18.34375 -12.71875 C 18.78125 -11.59375 19 -10.375 19 -9.0625 Z M 16.15625 -9.0625 C 16.15625 -10.320312 15.894531 -11.445312 15.375 -12.4375 C 14.863281 -13.425781 14.15625 -14.207031 13.25 -14.78125 C 12.34375 -15.363281 11.300781 -15.65625 10.125 -15.65625 C 8.9375 -15.65625 7.890625 -15.363281 6.984375 -14.78125 C 6.078125 -14.207031 5.367188 -13.425781 4.859375 -12.4375 C 4.347656 -11.445312 4.09375 -10.320312 4.09375 -9.0625 C 4.09375 -7.800781 4.347656 -6.671875 4.859375 -5.671875 C 5.367188 -4.679688 6.078125 -3.894531 6.984375 -3.3125 C 7.890625 -2.738281 8.9375 -2.453125 10.125 -2.453125 C 11.300781 -2.453125 12.34375 -2.738281 13.25 -3.3125 C 14.15625 -3.894531 14.863281 -4.6875 15.375 -5.6875 C 15.894531 -6.695312 16.15625 -7.820312 16.15625 -9.0625 Z M 16.15625 -9.0625 "/></g></g></g><g fill="#ffffff" fill-opacity="1"><g transform="translate(225.430499, 256.710276)"><g><path d="M 9.625 -18.125 C 11.03125 -18.125 12.257812 -17.882812 13.3125 -17.40625 C 14.375 -16.9375 15.257812 -16.28125 15.96875 -15.4375 C 16.675781 -14.601562 17.210938 -13.640625 17.578125 -12.546875 C 17.941406 -11.453125 18.125 -10.289062 18.125 -9.0625 C 18.125 -7.40625 17.800781 -5.890625 17.15625 -4.515625 C 16.519531 -3.140625 15.570312 -2.039062 14.3125 -1.21875 C 13.050781 -0.40625 11.488281 0 9.625 0 L 2.53125 0 L 2.53125 -18.125 Z M 9.5 -2.6875 C 10.863281 -2.6875 11.96875 -2.972656 12.8125 -3.546875 C 13.65625 -4.128906 14.273438 -4.90625 14.671875 -5.875 C 15.078125 -6.84375 15.28125 -7.90625 15.28125 -9.0625 C 15.28125 -10.195312 15.078125 -11.25 14.671875 -12.21875 C 14.273438 -13.1875 13.65625 -13.960938 12.8125 -14.546875 C 11.96875 -15.140625 10.863281 -15.4375 9.5 -15.4375 L 5.328125 -15.4375 L 5.328125 -2.6875 Z M 9.5 -2.6875 "/></g></g></g><g fill="#ffffff" fill-opacity="1"><g transform="translate(244.301851, 256.710276)"><g><path d="M 14.5 0 L 12.796875 -4.5 L 5.203125 -4.5 L 3.5 0 L 0.640625 0 L 7.65625 -18.125 L 10.515625 -18.125 L 17.46875 0 Z M 7.609375 -10.828125 L 6.234375 -7.203125 L 11.78125 -7.203125 L 10.359375 -10.921875 C 10.128906 -11.523438 9.898438 -12.175781 9.671875 -12.875 C 9.453125 -13.570312 9.234375 -14.273438 9.015625 -14.984375 C 8.765625 -14.265625 8.523438 -13.539062 8.296875 -12.8125 C 8.066406 -12.09375 7.835938 -11.429688 7.609375 -10.828125 Z M 7.609375 -10.828125 "/></g></g></g><g fill="#ffffff" fill-opacity="1"><g transform="translate(262.448438, 256.710276)"><g><path d="M 15.96875 -12.34375 C 15.96875 -11.257812 15.644531 -10.25 15 -9.3125 C 14.351562 -8.382812 13.515625 -7.695312 12.484375 -7.25 L 16.703125 0.03125 L 13.3125 0 L 9.46875 -6.8125 L 5.328125 -6.8125 L 5.328125 0 L 2.53125 0 L 2.53125 -18.125 L 10.25 -18.125 C 11.195312 -18.125 12.109375 -17.890625 12.984375 -17.421875 C 13.859375 -16.953125 14.570312 -16.285156 15.125 -15.421875 C 15.6875 -14.566406 15.96875 -13.539062 15.96875 -12.34375 Z M 9.78125 -15.4375 L 5.328125 -15.4375 L 5.328125 -9.5 L 10.515625 -9.5 C 11.335938 -9.5 11.976562 -9.789062 12.4375 -10.375 C 12.894531 -10.96875 13.125 -11.632812 13.125 -12.375 C 13.125 -13.320312 12.796875 -14.066406 12.140625 -14.609375 C 11.484375 -15.160156 10.695312 -15.4375 9.78125 -15.4375 Z M 9.78125 -15.4375 "/></g></g></g><g fill="#ffffff" fill-opacity="1"><g transform="translate(280.465591, 256.710276)"><g><path d="M 10.515625 0 L 1.859375 0 L 1.859375 -2.59375 L 4.796875 -2.59375 L 4.796875 -15.53125 L 1.859375 -15.53125 L 1.859375 -18.125 L 10.515625 -18.125 L 10.515625 -15.53125 L 7.59375 -15.53125 L 7.59375 -2.59375 L 10.515625 -2.59375 Z M 10.515625 0 "/></g></g></g></svg>