<svg xmlns="http://www.w3.org/2000/svg" xmlns:xlink="http://www.w3.org/1999/xlink" width="1000" zoomAndPan="magnify" viewBox="0 0 750 374.999991" height="500" preserveAspectRatio="xMidYMid meet" version="1.0"><defs><g/><clipPath id="9bc09e4035"><path d="M 25.332031 61.082031 L 278.167969 61.082031 L 278.167969 313.917969 L 25.332031 313.917969 Z M 25.332031 61.082031 " clip-rule="nonzero"/></clipPath><clipPath id="15808f1e58"><path d="M 151.75 61.082031 C 81.929688 61.082031 25.332031 117.679688 25.332031 187.5 C 25.332031 257.320312 81.929688 313.917969 151.75 313.917969 C 221.570312 313.917969 278.167969 257.320312 278.167969 187.5 C 278.167969 117.679688 221.570312 61.082031 151.75 61.082031 Z M 151.75 61.082031 " clip-rule="nonzero"/></clipPath><clipPath id="752f9c296a"><path d="M 0.332031 0.0820312 L 253.167969 0.0820312 L 253.167969 252.917969 L 0.332031 252.917969 Z M 0.332031 0.0820312 " clip-rule="nonzero"/></clipPath><clipPath id="8de5c46149"><path d="M 126.75 0.0820312 C 56.929688 0.0820312 0.332031 56.679688 0.332031 126.5 C 0.332031 196.320312 56.929688 252.917969 126.75 252.917969 C 196.570312 252.917969 253.167969 196.320312 253.167969 126.5 C 253.167969 56.679688 196.570312 0.0820312 126.75 0.0820312 Z M 126.75 0.0820312 " clip-rule="nonzero"/></clipPath><clipPath id="a55662258b"><rect x="0" width="254" y="0" height="253"/></clipPath><clipPath id="a7518bcb4c"><path d="M 73.347656 122.132812 L 230.152344 122.132812 L 230.152344 235.332031 L 73.347656 235.332031 Z M 73.347656 122.132812 " clip-rule="nonzero"/></clipPath><clipPath id="adcf7d9108"><path d="M 0.347656 0.132812 L 157.152344 0.132812 L 157.152344 113.332031 L 0.347656 113.332031 Z M 0.347656 0.132812 " clip-rule="nonzero"/></clipPath><clipPath id="b497013d1a"><rect x="0" width="158" y="0" height="114"/></clipPath><clipPath id="4cdaa32be7"><path d="M 47.613281 113.695312 L 256 113.695312 L 256 261.445312 L 47.613281 261.445312 Z M 47.613281 113.695312 " clip-rule="nonzero"/></clipPath><clipPath id="f97976d0c6"><path d="M 91 131.773438 L 212.363281 131.773438 L 212.363281 225.523438 L 91 225.523438 Z M 91 131.773438 " clip-rule="nonzero"/></clipPath><clipPath id="3c0f6bbd11"><rect x="0" width="384" y="0" height="61"/></clipPath></defs><g clip-path="url(#9bc09e4035)"><g clip-path="url(#15808f1e58)"><g transform="matrix(1, 0, 0, 1, 25, 61)"><g clip-path="url(#a55662258b)"><g clip-path="url(#752f9c296a)"><g clip-path="url(#8de5c46149)"><path fill="#ffffff" d="M 0.332031 0.0820312 L 253.167969 0.0820312 L 253.167969 252.917969 L 0.332031 252.917969 Z M 0.332031 0.0820312 " fill-opacity="1" fill-rule="nonzero"/></g></g></g></g></g></g><g clip-path="url(#a7518bcb4c)"><g transform="matrix(1, 0, 0, 1, 73, 122)"><g clip-path="url(#b497013d1a)"><g clip-path="url(#adcf7d9108)"><path fill="#ffffff" d="M 0.347656 0.132812 L 157.328125 0.132812 L 157.328125 113.332031 L 0.347656 113.332031 Z M 0.347656 0.132812 " fill-opacity="1" fill-rule="nonzero"/></g></g></g></g><g clip-path="url(#4cdaa32be7)"><path fill="#05200f" d="M 221.167969 243.902344 C 230.757812 243.902344 238.4375 236.136719 238.4375 226.546875 L 238.523438 131.09375 C 238.523438 121.503906 230.757812 113.738281 221.167969 113.738281 L 82.324219 113.738281 C 72.738281 113.738281 64.96875 121.503906 64.96875 131.09375 L 64.96875 226.546875 C 64.96875 236.136719 72.738281 243.902344 82.324219 243.902344 L 47.613281 243.902344 C 47.613281 253.492188 55.382812 261.257812 64.96875 261.257812 L 238.523438 261.257812 C 248.113281 261.257812 255.878906 253.492188 255.878906 243.902344 Z M 82.324219 131.09375 L 221.167969 131.09375 L 221.167969 226.546875 L 82.324219 226.546875 Z M 151.746094 252.582031 C 146.972656 252.582031 143.070312 248.675781 143.070312 243.902344 C 143.070312 239.132812 146.972656 235.226562 151.746094 235.226562 C 156.519531 235.226562 160.425781 239.132812 160.425781 243.902344 C 160.425781 248.675781 156.519531 252.582031 151.746094 252.582031 Z M 151.746094 252.582031 " fill-opacity="1" fill-rule="nonzero"/></g><g clip-path="url(#f97976d0c6)"><path fill="#000000" d="M 210.910156 201.742188 C 210.179688 201.933594 209.4375 202.03125 208.683594 202.03125 C 204.753906 202.03125 200.804688 202.0625 197.496094 199.546875 C 197.378906 199.722656 197.21875 199.835938 197.015625 199.894531 L 197.015625 202.886719 L 189.375 202.886719 C 189.300781 202.496094 189.21875 202.121094 189.132812 201.753906 C 189.082031 201.53125 189.035156 201.308594 188.988281 201.085938 L 188.964844 200.984375 C 188.734375 199.894531 188.644531 199.386719 189.003906 198.789062 C 189.6875 197.640625 189.765625 195.804688 189.183594 194.511719 C 187.179688 190.058594 184.902344 186.492188 182.21875 183.613281 C 179.152344 180.277344 175.480469 177.851562 171.203125 176.347656 C 168.0625 175.21875 164.660156 174.675781 160.796875 174.675781 C 159.667969 174.675781 158.511719 174.722656 157.257812 174.8125 C 155.371094 174.953125 153.367188 175.089844 151.410156 175.089844 C 150.601562 175.089844 149.855469 175.066406 149.128906 175.019531 C 148.394531 174.972656 147.449219 174.4375 146.539062 173.917969 C 146.359375 173.816406 146.183594 173.714844 146.007812 173.617188 C 143.480469 172.214844 141.078125 171.535156 138.667969 171.535156 C 138.351562 171.535156 138.03125 171.546875 137.714844 171.574219 C 137.386719 171.597656 137.058594 171.609375 136.746094 171.609375 C 134.941406 171.632812 133.253906 171.195312 131.683594 170.300781 C 131.601562 170.253906 131.539062 170.214844 131.488281 170.183594 C 131.945312 168.078125 131.265625 166.191406 129.621094 165.003906 C 128.753906 164.351562 127.777344 164.019531 126.695312 164 C 125.792969 163.996094 124.976562 164.261719 124.246094 164.789062 C 123.4375 165.371094 122.898438 166.144531 122.382812 166.894531 C 122.316406 166.988281 122.25 167.082031 122.183594 167.175781 C 122.136719 167.105469 122.097656 167.03125 122.066406 166.953125 C 121.542969 165.734375 120.160156 164.96875 119.140625 164.675781 C 118.816406 164.585938 118.488281 164.539062 118.148438 164.539062 C 117.570312 164.542969 117.027344 164.671875 116.511719 164.933594 C 116 165.195312 115.570312 165.558594 115.230469 166.023438 C 114.847656 166.542969 114.601562 167.117188 114.492188 167.75 C 114.382812 168.382812 114.421875 169.007812 114.609375 169.625 C 114.664062 169.773438 114.691406 169.925781 114.695312 170.085938 C 114.539062 170.242188 114.363281 170.375 114.167969 170.484375 C 112.234375 171.699219 111.152344 173.46875 111.039062 175.605469 C 111.011719 176.050781 110.621094 176.359375 109.527344 177 C 109.445312 177.046875 109.363281 177.09375 109.28125 177.140625 C 108.75 177.421875 108.195312 177.652344 107.617188 177.824219 C 107.40625 177.898438 107.199219 177.964844 106.992188 178.042969 C 106.015625 178.394531 105.378906 178.964844 105.097656 179.746094 C 104.96875 180.136719 104.929688 180.539062 104.980469 180.945312 C 105.035156 181.355469 105.175781 181.730469 105.402344 182.074219 C 105.609375 182.449219 105.796875 182.832031 105.964844 183.222656 C 106.625 184.722656 107.539062 186.777344 110.230469 187.292969 L 110.507812 187.347656 C 111.210938 187.507812 111.921875 187.597656 112.644531 187.617188 C 112.71875 187.617188 112.796875 187.617188 112.875 187.613281 C 112.953125 187.609375 113.03125 187.609375 113.113281 187.609375 C 114.542969 187.609375 115.515625 188.121094 116.257812 189.265625 L 116.328125 189.375 C 116.726562 189.996094 117.472656 191.15625 119.042969 191.15625 L 119.089844 191.15625 C 119.191406 191.28125 119.296875 191.414062 119.402344 191.554688 C 119.628906 191.84375 119.859375 192.140625 120.140625 192.4375 C 120.160156 192.460938 120.210938 192.527344 120.25 192.578125 C 120.527344 192.929688 121.082031 193.644531 122.054688 193.734375 C 122.480469 194.828125 122.625 196.019531 122.691406 197.457031 C 122.730469 198.269531 122.8125 199.070312 122.894531 199.847656 C 123.019531 200.855469 123.085938 201.867188 123.097656 202.886719 L 106.453125 202.886719 C 106.464844 202.875 106.472656 202.859375 106.484375 202.84375 L 106.484375 196.277344 C 103.082031 199.1875 98.9375 199.148438 94.816406 199.148438 C 94.058594 199.144531 93.316406 199.050781 92.585938 198.859375 C 91.109375 198.492188 90.867188 197.714844 91.890625 196.585938 C 94.09375 194.214844 95.851562 191.554688 97.167969 188.601562 C 97.222656 188.464844 97.28125 188.324219 97.417969 187.988281 C 96.773438 188.394531 96.109375 188.765625 95.421875 189.09375 C 94.878906 189.351562 94.3125 189.484375 93.714844 189.492188 C 92.585938 189.453125 92.285156 188.734375 92.972656 187.851562 C 93.894531 186.660156 94.917969 185.542969 95.816406 184.335938 C 96.945312 182.859375 97.96875 181.308594 98.882812 179.691406 C 98.113281 180.0625 97.359375 180.453125 96.574219 180.78125 C 96.140625 180.972656 95.6875 181.082031 95.214844 181.117188 C 94.800781 181.082031 94.398438 180.992188 94.003906 180.851562 C 94.121094 180.457031 94.152344 180.003906 94.371094 179.6875 C 95.195312 178.460938 96.222656 177.355469 96.910156 176.066406 C 98.253906 173.53125 99.414062 170.898438 100.648438 168.3125 C 100.5625 168.261719 98.929688 169.523438 98.1875 170.175781 C 97.925781 170.410156 97.636719 170.597656 97.320312 170.742188 C 96.542969 171.0625 96.117188 170.71875 96.324219 169.917969 C 96.472656 169.410156 96.703125 168.9375 97.011719 168.507812 C 98.1875 166.691406 99.40625 164.898438 100.578125 163.078125 C 100.898438 162.488281 101.1875 161.882812 101.441406 161.261719 C 100.824219 161.558594 100.414062 161.890625 99.976562 161.9375 C 99.46875 161.980469 98.480469 160.695312 98.71875 160.332031 C 100.085938 158.222656 101.566406 156.1875 102.898438 154.070312 C 103.566406 153.019531 104.011719 151.851562 104.558594 150.738281 C 104.496094 150.691406 104.433594 150.644531 104.371094 150.597656 C 104.054688 150.855469 100.140625 151.082031 100.414062 150.695312 C 102.128906 148.285156 103.738281 145.8125 104.707031 142.992188 C 104.84375 142.613281 104.933594 142.222656 105.019531 141.957031 C 104.394531 141.996094 103.816406 142.03125 103.246094 142.058594 C 103.464844 141.507812 103.722656 140.980469 104.023438 140.472656 C 105.574219 138.136719 106.90625 135.6875 107.664062 132.96875 C 107.738281 132.714844 107.996094 131.847656 108 131.832031 C 108.003906 131.835938 108.003906 131.839844 108.003906 131.84375 C 108.011719 131.839844 108.011719 131.835938 108.015625 131.832031 C 108.015625 131.847656 108.273438 132.714844 108.347656 132.96875 C 109.105469 135.6875 110.4375 138.136719 111.992188 140.472656 C 112.289062 140.980469 112.546875 141.511719 112.765625 142.058594 C 112.199219 142.03125 111.617188 141.996094 110.992188 141.957031 C 111.074219 142.222656 111.171875 142.613281 111.300781 142.992188 C 112.273438 145.8125 113.882812 148.285156 115.597656 150.695312 C 115.871094 151.082031 111.960938 150.855469 111.640625 150.597656 C 111.578125 150.644531 111.515625 150.691406 111.453125 150.738281 C 112 151.851562 112.445312 153.019531 113.113281 154.070312 C 113.789062 155.144531 114.503906 156.199219 115.226562 157.253906 C 115.128906 157.085938 115.117188 156.914062 115.195312 156.734375 C 116.90625 154.320312 118.519531 151.847656 119.488281 149.027344 C 119.621094 148.648438 119.71875 148.257812 119.800781 147.996094 C 119.175781 148.035156 118.59375 148.066406 118.027344 148.09375 C 118.246094 147.546875 118.503906 147.019531 118.800781 146.511719 C 120.355469 144.171875 121.6875 141.726562 122.441406 139.003906 C 122.515625 138.75 122.777344 137.886719 122.777344 137.867188 C 122.78125 137.875 122.78125 137.875 122.785156 137.878906 C 122.789062 137.875 122.789062 137.875 122.792969 137.867188 C 122.796875 137.886719 123.054688 138.75 123.128906 139.003906 C 123.886719 141.726562 125.214844 144.171875 126.769531 146.511719 C 127.070312 147.019531 127.328125 147.546875 127.546875 148.09375 C 126.976562 148.066406 126.398438 148.035156 125.769531 147.996094 C 125.855469 148.257812 125.949219 148.648438 126.085938 149.027344 C 127.054688 151.847656 128.664062 154.320312 130.378906 156.734375 C 130.648438 157.117188 126.296875 156.726562 126.234375 156.777344 C 126.78125 157.886719 130.59375 162.703125 131.957031 164.816406 C 131.988281 164.863281 134.527344 162.339844 135.074219 161.226562 C 135.011719 161.179688 134.949219 161.132812 134.886719 161.085938 C 134.566406 161.34375 130.65625 161.570312 130.929688 161.183594 C 132.644531 158.773438 134.253906 156.300781 135.226562 153.476562 C 135.359375 153.101562 135.453125 152.710938 135.535156 152.441406 C 134.910156 152.484375 134.332031 152.519531 133.761719 152.546875 C 133.980469 152 134.238281 151.46875 134.535156 150.960938 C 136.089844 148.625 137.421875 146.175781 138.179688 143.453125 C 138.253906 143.203125 138.511719 142.335938 138.515625 142.320312 C 138.519531 142.324219 138.519531 142.328125 138.523438 142.332031 C 138.523438 142.328125 138.523438 142.324219 138.527344 142.320312 C 138.53125 142.335938 138.789062 143.203125 138.863281 143.453125 C 139.414062 145.351562 140.191406 147.148438 141.195312 148.847656 C 142.453125 147.023438 143.460938 145.074219 144.21875 142.992188 C 144.347656 142.613281 144.445312 142.222656 144.527344 141.957031 C 143.902344 141.996094 143.324219 142.03125 142.753906 142.058594 C 142.972656 141.511719 143.230469 140.980469 143.527344 140.472656 C 145.085938 138.136719 146.414062 135.6875 147.171875 132.96875 C 147.246094 132.714844 147.503906 131.847656 147.507812 131.832031 C 147.511719 131.835938 147.511719 131.839844 147.515625 131.84375 C 147.515625 131.839844 147.515625 131.835938 147.519531 131.832031 C 147.527344 131.847656 147.785156 132.714844 147.855469 132.96875 C 148.613281 135.6875 149.945312 138.136719 151.496094 140.472656 C 151.796875 140.980469 152.054688 141.507812 152.273438 142.058594 C 151.703125 142.03125 151.125 141.996094 150.5 141.957031 C 150.585938 142.222656 150.679688 142.613281 150.8125 142.992188 C 151.78125 145.8125 153.394531 148.285156 155.109375 150.695312 C 155.378906 151.082031 151.46875 150.855469 151.148438 150.597656 C 151.085938 150.644531 151.023438 150.691406 150.960938 150.738281 C 151.507812 151.851562 151.953125 153.019531 152.621094 154.070312 C 153.882812 156.078125 155.28125 158.011719 156.585938 160.011719 C 157.277344 159 157.960938 157.984375 158.613281 156.953125 C 159.277344 155.90625 159.722656 154.734375 160.269531 153.625 C 160.207031 153.574219 160.144531 153.53125 160.082031 153.484375 C 159.761719 153.742188 155.851562 153.96875 156.125 153.582031 C 157.839844 151.171875 159.449219 148.699219 160.421875 145.875 C 160.554688 145.5 160.648438 145.109375 160.730469 144.839844 C 160.105469 144.882812 159.523438 144.914062 158.957031 144.941406 C 159.175781 144.394531 159.433594 143.867188 159.730469 143.355469 C 161.285156 141.023438 162.617188 138.570312 163.375 135.851562 C 163.449219 135.597656 163.707031 134.734375 163.710938 134.71875 C 163.714844 134.71875 163.714844 134.722656 163.71875 134.726562 C 163.71875 134.722656 163.71875 134.71875 163.722656 134.71875 C 163.726562 134.734375 163.984375 135.597656 164.058594 135.851562 C 164.816406 138.570312 166.148438 141.023438 167.699219 143.355469 C 168 143.863281 168.257812 144.394531 168.476562 144.941406 C 167.90625 144.914062 167.328125 144.882812 166.703125 144.839844 C 166.789062 145.109375 166.878906 145.5 167.015625 145.875 C 167.773438 147.96875 168.789062 149.929688 170.054688 151.757812 C 170.671875 150.558594 171.171875 149.308594 171.5625 148.015625 C 171.0625 148.046875 170.585938 148.070312 170.117188 148.09375 C 170.335938 147.546875 170.59375 147.019531 170.890625 146.511719 C 172.449219 144.171875 173.777344 141.726562 174.535156 139.003906 C 174.609375 138.75 174.867188 137.886719 174.871094 137.867188 C 174.875 137.875 174.875 137.875 174.878906 137.878906 C 174.882812 137.875 174.882812 137.875 174.882812 137.867188 C 174.890625 137.886719 175.148438 138.75 175.21875 139.003906 C 175.976562 141.726562 177.308594 144.171875 178.863281 146.511719 C 179.160156 147.019531 179.417969 147.546875 179.636719 148.09375 C 179.066406 148.066406 178.488281 148.035156 177.863281 147.996094 C 177.949219 148.257812 178.042969 148.648438 178.175781 149.027344 C 178.320312 149.449219 178.484375 149.863281 178.65625 150.269531 C 180.0625 148.15625 181.128906 145.886719 181.851562 143.453125 C 181.925781 143.203125 182.183594 142.335938 182.1875 142.320312 C 182.191406 142.324219 182.191406 142.328125 182.191406 142.332031 C 182.195312 142.328125 182.195312 142.324219 182.203125 142.320312 C 182.203125 142.335938 182.460938 143.203125 182.535156 143.453125 C 183.292969 146.175781 184.625 148.625 186.179688 150.960938 C 186.476562 151.46875 186.734375 152 186.953125 152.546875 C 186.382812 152.519531 185.804688 152.484375 185.179688 152.441406 C 185.261719 152.710938 185.359375 153.101562 185.488281 153.476562 C 186.285156 155.644531 187.339844 157.671875 188.664062 159.5625 C 189.25 158.699219 189.832031 157.832031 190.386719 156.953125 C 191.050781 155.90625 191.496094 154.734375 192.042969 153.625 C 191.980469 153.574219 191.921875 153.53125 191.855469 153.484375 C 191.539062 153.742188 187.625 153.96875 187.898438 153.582031 C 189.613281 151.171875 191.226562 148.699219 192.195312 145.875 C 192.328125 145.5 192.421875 145.109375 192.503906 144.839844 C 191.878906 144.882812 191.300781 144.914062 190.730469 144.941406 C 190.949219 144.394531 191.210938 143.867188 191.507812 143.355469 C 193.058594 141.023438 194.394531 138.570312 195.148438 135.851562 C 195.222656 135.597656 195.480469 134.734375 195.484375 134.71875 C 195.488281 134.71875 195.488281 134.722656 195.492188 134.726562 C 195.496094 134.722656 195.496094 134.71875 195.5 134.71875 C 195.5 134.734375 195.761719 135.597656 195.835938 135.851562 C 196.59375 138.570312 197.921875 141.023438 199.476562 143.355469 C 199.773438 143.867188 200.03125 144.394531 200.25 144.941406 C 199.683594 144.914062 199.101562 144.882812 198.476562 144.839844 C 198.5625 145.109375 198.65625 145.5 198.789062 145.875 C 199.761719 148.699219 201.367188 151.171875 203.082031 153.582031 C 203.355469 153.96875 199.445312 153.742188 199.128906 153.484375 C 199.066406 153.53125 199.003906 153.574219 198.9375 153.625 C 199.488281 154.734375 199.929688 155.90625 200.597656 156.953125 C 201.929688 159.070312 203.414062 161.105469 204.777344 163.21875 C 205.015625 163.578125 202.675781 164.445312 202.058594 164.144531 C 202.3125 164.765625 202.601562 165.375 202.917969 165.964844 C 204.089844 167.78125 205.3125 169.574219 206.488281 171.390625 C 206.792969 171.824219 207.019531 172.296875 207.171875 172.804688 C 207.382812 173.601562 206.953125 173.949219 206.179688 173.625 C 205.859375 173.484375 205.570312 173.296875 205.3125 173.0625 C 204.566406 172.40625 202.933594 171.144531 202.847656 171.195312 C 204.082031 173.78125 208.304688 181.34375 209.125 182.570312 C 209.347656 182.890625 209.378906 183.34375 209.492188 183.734375 C 209.101562 183.875 208.695312 183.964844 208.28125 184.003906 C 207.808594 183.96875 207.355469 183.855469 206.921875 183.667969 C 206.140625 183.339844 205.378906 182.945312 204.613281 182.574219 C 205.53125 184.195312 206.554688 185.742188 207.679688 187.222656 C 208.578125 188.425781 209.605469 189.542969 210.527344 190.734375 C 211.214844 191.617188 210.910156 192.335938 209.785156 192.378906 C 209.1875 192.367188 208.617188 192.234375 208.078125 191.976562 C 207.390625 191.648438 206.722656 191.28125 206.074219 190.875 C 206.214844 191.207031 206.273438 191.347656 206.328125 191.488281 C 207.644531 194.441406 209.402344 197.101562 211.605469 199.46875 C 212.628906 200.601562 212.386719 201.375 210.910156 201.742188 Z M 131.945312 171.753906 C 131.949219 171.757812 131.949219 171.761719 131.953125 171.761719 C 131.953125 171.757812 131.953125 171.753906 131.957031 171.75 C 131.953125 171.75 131.949219 171.753906 131.945312 171.753906 Z M 191.695312 212.40625 C 189.34375 209.917969 188.277344 206.867188 187.746094 203.566406 C 187.632812 202.855469 187.449219 202.152344 187.300781 201.441406 C 187.046875 200.246094 186.785156 199.140625 187.523438 197.902344 C 187.933594 197.21875 187.949219 195.972656 187.613281 195.21875 C 184.085938 187.386719 179.058594 180.984375 170.625 177.96875 C 166.324219 176.429688 161.898438 176.195312 157.386719 176.53125 C 154.605469 176.738281 151.792969 176.917969 149.019531 176.738281 C 147.703125 176.65625 146.390625 175.800781 145.171875 175.125 C 142.875 173.855469 140.480469 173.09375 137.84375 173.289062 C 135.347656 173.53125 133.007812 173.03125 130.828125 171.796875 C 129.988281 171.316406 129.5625 170.917969 129.800781 169.824219 C 130.082031 168.539062 129.785156 167.25 128.609375 166.402344 C 127.550781 165.636719 126.28125 165.449219 125.25 166.191406 C 124.417969 166.789062 123.894531 167.824219 123.097656 168.839844 C 122.210938 168.96875 121.128906 169.128906 120.484375 167.636719 C 120.226562 167.042969 119.363281 166.53125 118.671875 166.335938 C 117.152344 165.90625 115.765625 167.417969 116.265625 169.140625 C 116.683594 170.582031 116.242188 171.214844 115.085938 171.945312 C 113.769531 172.769531 112.851562 173.964844 112.757812 175.699219 C 112.671875 177.257812 111.316406 177.941406 110.160156 178.625 C 109.371094 179.09375 108.449219 179.347656 107.574219 179.664062 C 106.789062 179.945312 106.417969 180.40625 106.886719 181.199219 C 107.871094 182.863281 108.144531 185.136719 110.554688 185.601562 C 111.292969 185.78125 112.046875 185.878906 112.804688 185.890625 C 114.90625 185.8125 116.550781 186.550781 117.703125 188.328125 C 118.125 188.972656 118.5 189.675781 119.511719 189.355469 C 119.675781 189.300781 120.003906 189.585938 120.179688 189.785156 C 120.609375 190.257812 120.96875 190.796875 121.402344 191.265625 C 121.808594 191.707031 122.136719 192.523438 122.886719 191.597656 C 124.09375 193.472656 124.324219 195.433594 124.414062 197.375 C 124.550781 200.289062 125.324219 203.257812 124.304688 206.117188 C 123.703125 207.835938 122.894531 209.449219 121.878906 210.957031 C 120.4375 213.058594 118.683594 214.945312 118.273438 217.605469 C 117.851562 220.347656 119.554688 224 121.84375 224.789062 C 122.636719 225.0625 123.753906 225.078125 124.472656 224.714844 C 125.371094 224.261719 125.113281 223.183594 124.878906 222.277344 C 124.296875 220.015625 124.394531 219.90625 126.675781 219.113281 C 130.082031 217.925781 132.996094 215.957031 135.589844 213.46875 C 136.300781 212.785156 136.25 212.296875 135.695312 211.527344 C 132.121094 206.554688 129.484375 201.152344 128.359375 195.082031 C 128.261719 194.5625 128.234375 194.027344 128.207031 193.777344 C 130.046875 197.875 131.859375 202.242188 133.953125 206.46875 C 135.46875 209.519531 137.449219 212.339844 139.039062 215.355469 C 139.695312 216.699219 140.128906 218.113281 140.335938 219.59375 C 140.609375 221.207031 140.222656 221.539062 138.625 222.015625 C 137.882812 222.203125 137.191406 222.503906 136.550781 222.921875 C 136.117188 223.285156 135.917969 223.746094 135.949219 224.308594 C 136.019531 224.644531 136.726562 225.058594 137.164062 225.070312 C 140.007812 225.144531 142.851562 225.132812 145.699219 225.121094 C 147.269531 225.117188 148.082031 224.085938 148.53125 222.765625 C 150.078125 218.25 150.417969 213.597656 149.828125 208.890625 C 149.488281 206.199219 148.953125 203.535156 148.503906 200.859375 C 148.613281 200.828125 150.214844 205.613281 150.941406 208.023438 C 151.058594 208.417969 151.328125 209.015625 151.609375 209.070312 C 154.277344 209.558594 156.960938 209.957031 159.640625 210.375 C 160.855469 210.5625 161.527344 210.152344 161.355469 208.796875 C 161.375 208.523438 161.476562 208.289062 161.660156 208.085938 C 161.382812 212.082031 162.648438 215.839844 163.292969 219.691406 C 163.558594 221.277344 163.3125 221.601562 161.789062 222.023438 C 161.125 222.171875 160.503906 222.429688 159.925781 222.796875 C 159.546875 223.074219 159.121094 223.742188 159.214844 224.097656 C 159.433594 224.652344 159.824219 225.03125 160.386719 225.234375 C 161.210938 225.484375 162.050781 225.59375 162.90625 225.570312 C 165.550781 225.550781 168.191406 225.480469 170.835938 225.371094 C 172.351562 225.300781 172.929688 224.789062 173.113281 223.289062 C 173.839844 217.425781 176.136719 212.269531 179.792969 207.640625 C 181.125 206 182.179688 204.195312 182.957031 202.230469 C 183.734375 200.261719 184.195312 198.226562 184.34375 196.117188 C 185.144531 198.558594 185.046875 199.960938 184.011719 202.921875 C 183.050781 205.660156 181.417969 207.984375 179.640625 210.25 C 178.414062 211.8125 177.390625 213.539062 176.335938 215.234375 C 175.898438 215.9375 176.105469 216.539062 176.96875 216.796875 C 179.367188 217.507812 181.769531 218.207031 184.164062 218.933594 C 184.742188 219.074219 185.289062 219.296875 185.800781 219.601562 C 185.894531 219.667969 185.980469 219.746094 186.054688 219.835938 C 186.128906 219.925781 186.191406 220.019531 186.242188 220.125 C 186.289062 220.230469 186.324219 220.339844 186.347656 220.457031 C 186.371094 220.570312 186.375 220.683594 186.367188 220.800781 C 186.359375 220.917969 186.339844 221.03125 186.300781 221.140625 C 186.265625 221.25 186.214844 221.355469 186.152344 221.453125 C 186.089844 221.550781 186.015625 221.636719 185.929688 221.714844 C 185.84375 221.796875 185.75 221.863281 185.644531 221.917969 C 185.199219 222.160156 184.636719 222.253906 184.28125 222.585938 C 183.886719 222.953125 183.339844 223.617188 183.449219 223.960938 C 183.597656 224.421875 184.273438 224.910156 184.796875 225.015625 C 187.800781 225.628906 190.398438 225.035156 192.097656 222.207031 C 192.953125 220.785156 193.839844 219.378906 194.613281 217.914062 C 195.089844 217.007812 194.910156 216.078125 194.226562 215.289062 C 193.390625 214.324219 192.574219 213.335938 191.695312 212.40625 Z M 191.695312 212.40625 " fill-opacity="1" fill-rule="nonzero"/></g><g transform="matrix(1, 0, 0, 1, 318, 157)"><g clip-path="url(#3c0f6bbd11)"><g fill="#ffffff" fill-opacity="1"><g transform="translate(1.206655, 48.14238)"><g><path d="M 9.65625 0 L 4.59375 0 L 4.59375 -32.796875 L 9.65625 -32.796875 L 9.65625 -16.71875 L 25.71875 -32.796875 L 32.375 -32.796875 L 18.21875 -19.0625 L 32.65625 0 L 26.328125 0 L 14.65625 -15.59375 L 9.65625 -10.734375 Z M 9.65625 0 "/></g></g></g><g fill="#ffffff" fill-opacity="1"><g transform="translate(33.433262, 48.14238)"><g><path d="M 34.390625 -16.390625 C 34.390625 -14.015625 34 -11.804688 33.21875 -9.765625 C 32.4375 -7.722656 31.316406 -5.9375 29.859375 -4.40625 C 28.410156 -2.875 26.707031 -1.675781 24.75 -0.8125 C 22.800781 0.0390625 20.65625 0.46875 18.3125 0.46875 C 15.96875 0.46875 13.8125 0.0390625 11.84375 -0.8125 C 9.882812 -1.675781 8.1875 -2.875 6.75 -4.40625 C 5.3125 -5.9375 4.203125 -7.722656 3.421875 -9.765625 C 2.640625 -11.804688 2.25 -14.015625 2.25 -16.390625 C 2.25 -18.765625 2.640625 -20.972656 3.421875 -23.015625 C 4.203125 -25.066406 5.3125 -26.859375 6.75 -28.390625 C 8.1875 -29.921875 9.882812 -31.113281 11.84375 -31.96875 C 13.8125 -32.832031 15.96875 -33.265625 18.3125 -33.265625 C 20.65625 -33.265625 22.800781 -32.832031 24.75 -31.96875 C 26.707031 -31.113281 28.410156 -29.921875 29.859375 -28.390625 C 31.316406 -26.859375 32.4375 -25.066406 33.21875 -23.015625 C 34 -20.972656 34.390625 -18.765625 34.390625 -16.390625 Z M 29.234375 -16.390625 C 29.234375 -18.671875 28.765625 -20.707031 27.828125 -22.5 C 26.890625 -24.300781 25.597656 -25.722656 23.953125 -26.765625 C 22.316406 -27.816406 20.4375 -28.34375 18.3125 -28.34375 C 16.15625 -28.34375 14.257812 -27.816406 12.625 -26.765625 C 10.988281 -25.722656 9.707031 -24.300781 8.78125 -22.5 C 7.863281 -20.707031 7.40625 -18.671875 7.40625 -16.390625 C 7.40625 -14.109375 7.863281 -12.070312 8.78125 -10.28125 C 9.707031 -8.488281 10.988281 -7.066406 12.625 -6.015625 C 14.257812 -4.972656 16.15625 -4.453125 18.3125 -4.453125 C 20.4375 -4.453125 22.316406 -4.972656 23.953125 -6.015625 C 25.597656 -7.066406 26.890625 -8.492188 27.828125 -10.296875 C 28.765625 -12.109375 29.234375 -14.140625 29.234375 -16.390625 Z M 29.234375 -16.390625 "/></g></g></g><g fill="#ffffff" fill-opacity="1"><g transform="translate(70.110084, 48.14238)"><g><path d="M 28.90625 -22.34375 C 28.90625 -20.375 28.316406 -18.546875 27.140625 -16.859375 C 25.972656 -15.171875 24.453125 -13.921875 22.578125 -13.109375 L 30.21875 0.046875 L 24.078125 0 L 17.140625 -12.3125 L 9.65625 -12.3125 L 9.65625 0 L 4.59375 0 L 4.59375 -32.796875 L 18.546875 -32.796875 C 20.265625 -32.796875 21.910156 -32.375 23.484375 -31.53125 C 25.066406 -30.6875 26.363281 -29.484375 27.375 -27.921875 C 28.394531 -26.359375 28.90625 -24.5 28.90625 -22.34375 Z M 17.703125 -27.921875 L 9.65625 -27.921875 L 9.65625 -17.1875 L 19.015625 -17.1875 C 20.515625 -17.1875 21.675781 -17.71875 22.5 -18.78125 C 23.332031 -19.84375 23.75 -21.046875 23.75 -22.390625 C 23.75 -24.109375 23.15625 -25.457031 21.96875 -26.4375 C 20.78125 -27.425781 19.359375 -27.921875 17.703125 -27.921875 Z M 17.703125 -27.921875 "/></g></g></g><g fill="#ffffff" fill-opacity="1"><g transform="translate(102.71171, 48.14238)"><g><path d="M 17.9375 -32.796875 C 19.6875 -32.796875 21.296875 -32.347656 22.765625 -31.453125 C 24.234375 -30.566406 25.40625 -29.363281 26.28125 -27.84375 C 27.15625 -26.332031 27.59375 -24.625 27.59375 -22.71875 C 27.59375 -20.84375 27.15625 -19.128906 26.28125 -17.578125 C 25.40625 -16.035156 24.234375 -14.8125 22.765625 -13.90625 C 21.296875 -13 19.6875 -12.546875 17.9375 -12.546875 L 9.65625 -12.546875 L 9.65625 0 L 4.59375 0 L 4.59375 -32.796875 Z M 17.84375 -17.421875 C 18.6875 -17.421875 19.453125 -17.660156 20.140625 -18.140625 C 20.828125 -18.628906 21.378906 -19.269531 21.796875 -20.0625 C 22.222656 -20.863281 22.4375 -21.75 22.4375 -22.71875 C 22.4375 -24.1875 21.984375 -25.421875 21.078125 -26.421875 C 20.171875 -27.421875 19.09375 -27.921875 17.84375 -27.921875 L 9.65625 -27.921875 L 9.65625 -17.421875 Z M 17.84375 -17.421875 "/></g></g></g><g fill="#ffffff" fill-opacity="1"><g transform="translate(132.456009, 48.14238)"><g><path d="M 19.015625 0 L 3.375 0 L 3.375 -4.6875 L 8.671875 -4.6875 L 8.671875 -28.109375 L 3.375 -28.109375 L 3.375 -32.796875 L 19.015625 -32.796875 L 19.015625 -28.109375 L 13.71875 -28.109375 L 13.71875 -4.6875 L 19.015625 -4.6875 Z M 19.015625 0 "/></g></g></g><g fill="#ffffff" fill-opacity="1"><g transform="translate(154.893036, 48.14238)"><g><path d="M 9.65625 0 L 4.59375 0 L 4.59375 -32.796875 L 9.65625 -32.796875 L 9.65625 -16.71875 L 25.71875 -32.796875 L 32.375 -32.796875 L 18.21875 -19.0625 L 32.65625 0 L 26.328125 0 L 14.65625 -15.59375 L 9.65625 -10.734375 Z M 9.65625 0 "/></g></g></g><g fill="#ffffff" fill-opacity="1"><g transform="translate(187.119644, 48.14238)"><g><path d="M 34.390625 -16.390625 C 34.390625 -14.015625 34 -11.804688 33.21875 -9.765625 C 32.4375 -7.722656 31.316406 -5.9375 29.859375 -4.40625 C 28.410156 -2.875 26.707031 -1.675781 24.75 -0.8125 C 22.800781 0.0390625 20.65625 0.46875 18.3125 0.46875 C 15.96875 0.46875 13.8125 0.0390625 11.84375 -0.8125 C 9.882812 -1.675781 8.1875 -2.875 6.75 -4.40625 C 5.3125 -5.9375 4.203125 -7.722656 3.421875 -9.765625 C 2.640625 -11.804688 2.25 -14.015625 2.25 -16.390625 C 2.25 -18.765625 2.640625 -20.972656 3.421875 -23.015625 C 4.203125 -25.066406 5.3125 -26.859375 6.75 -28.390625 C 8.1875 -29.921875 9.882812 -31.113281 11.84375 -31.96875 C 13.8125 -32.832031 15.96875 -33.265625 18.3125 -33.265625 C 20.65625 -33.265625 22.800781 -32.832031 24.75 -31.96875 C 26.707031 -31.113281 28.410156 -29.921875 29.859375 -28.390625 C 31.316406 -26.859375 32.4375 -25.066406 33.21875 -23.015625 C 34 -20.972656 34.390625 -18.765625 34.390625 -16.390625 Z M 29.234375 -16.390625 C 29.234375 -18.671875 28.765625 -20.707031 27.828125 -22.5 C 26.890625 -24.300781 25.597656 -25.722656 23.953125 -26.765625 C 22.316406 -27.816406 20.4375 -28.34375 18.3125 -28.34375 C 16.15625 -28.34375 14.257812 -27.816406 12.625 -26.765625 C 10.988281 -25.722656 9.707031 -24.300781 8.78125 -22.5 C 7.863281 -20.707031 7.40625 -18.671875 7.40625 -16.390625 C 7.40625 -14.109375 7.863281 -12.070312 8.78125 -10.28125 C 9.707031 -8.488281 10.988281 -7.066406 12.625 -6.015625 C 14.257812 -4.972656 16.15625 -4.453125 18.3125 -4.453125 C 20.4375 -4.453125 22.316406 -4.972656 23.953125 -6.015625 C 25.597656 -7.066406 26.890625 -8.492188 27.828125 -10.296875 C 28.765625 -12.109375 29.234375 -14.140625 29.234375 -16.390625 Z M 29.234375 -16.390625 "/></g></g></g><g fill="#ffffff" fill-opacity="1"><g transform="translate(223.796465, 48.14238)"><g><path d="M 34.390625 -16.390625 C 34.390625 -14.015625 34 -11.804688 33.21875 -9.765625 C 32.4375 -7.722656 31.316406 -5.9375 29.859375 -4.40625 C 28.410156 -2.875 26.707031 -1.675781 24.75 -0.8125 C 22.800781 0.0390625 20.65625 0.46875 18.3125 0.46875 C 15.96875 0.46875 13.8125 0.0390625 11.84375 -0.8125 C 9.882812 -1.675781 8.1875 -2.875 6.75 -4.40625 C 5.3125 -5.9375 4.203125 -7.722656 3.421875 -9.765625 C 2.640625 -11.804688 2.25 -14.015625 2.25 -16.390625 C 2.25 -18.765625 2.640625 -20.972656 3.421875 -23.015625 C 4.203125 -25.066406 5.3125 -26.859375 6.75 -28.390625 C 8.1875 -29.921875 9.882812 -31.113281 11.84375 -31.96875 C 13.8125 -32.832031 15.96875 -33.265625 18.3125 -33.265625 C 20.65625 -33.265625 22.800781 -32.832031 24.75 -31.96875 C 26.707031 -31.113281 28.410156 -29.921875 29.859375 -28.390625 C 31.316406 -26.859375 32.4375 -25.066406 33.21875 -23.015625 C 34 -20.972656 34.390625 -18.765625 34.390625 -16.390625 Z M 29.234375 -16.390625 C 29.234375 -18.671875 28.765625 -20.707031 27.828125 -22.5 C 26.890625 -24.300781 25.597656 -25.722656 23.953125 -26.765625 C 22.316406 -27.816406 20.4375 -28.34375 18.3125 -28.34375 C 16.15625 -28.34375 14.257812 -27.816406 12.625 -26.765625 C 10.988281 -25.722656 9.707031 -24.300781 8.78125 -22.5 C 7.863281 -20.707031 7.40625 -18.671875 7.40625 -16.390625 C 7.40625 -14.109375 7.863281 -12.070312 8.78125 -10.28125 C 9.707031 -8.488281 10.988281 -7.066406 12.625 -6.015625 C 14.257812 -4.972656 16.15625 -4.453125 18.3125 -4.453125 C 20.4375 -4.453125 22.316406 -4.972656 23.953125 -6.015625 C 25.597656 -7.066406 26.890625 -8.492188 27.828125 -10.296875 C 28.765625 -12.109375 29.234375 -14.140625 29.234375 -16.390625 Z M 29.234375 -16.390625 "/></g></g></g><g fill="#ffffff" fill-opacity="1"><g transform="translate(260.473287, 48.14238)"><g><path d="M 17.421875 -32.796875 C 19.953125 -32.796875 22.175781 -32.363281 24.09375 -31.5 C 26.019531 -30.644531 27.625 -29.457031 28.90625 -27.9375 C 30.1875 -26.425781 31.15625 -24.675781 31.8125 -22.6875 C 32.46875 -20.707031 32.796875 -18.609375 32.796875 -16.390625 C 32.796875 -13.390625 32.21875 -10.648438 31.0625 -8.171875 C 29.90625 -5.691406 28.1875 -3.707031 25.90625 -2.21875 C 23.625 -0.738281 20.796875 0 17.421875 0 L 4.59375 0 L 4.59375 -32.796875 Z M 17.1875 -4.875 C 19.65625 -4.875 21.65625 -5.394531 23.1875 -6.4375 C 24.71875 -7.488281 25.84375 -8.882812 26.5625 -10.625 C 27.28125 -12.375 27.640625 -14.296875 27.640625 -16.390625 C 27.640625 -18.453125 27.28125 -20.359375 26.5625 -22.109375 C 25.84375 -23.859375 24.71875 -25.265625 23.1875 -26.328125 C 21.65625 -27.390625 19.65625 -27.921875 17.1875 -27.921875 L 9.65625 -27.921875 L 9.65625 -4.875 Z M 17.1875 -4.875 "/></g></g></g><g fill="#ffffff" fill-opacity="1"><g transform="translate(294.620565, 48.14238)"><g><path d="M 26.234375 0 L 23.140625 -8.15625 L 9.421875 -8.15625 L 6.328125 0 L 1.171875 0 L 13.859375 -32.796875 L 19.015625 -32.796875 L 31.625 0 Z M 13.765625 -19.578125 L 11.296875 -13.015625 L 21.3125 -13.015625 L 18.734375 -19.765625 C 18.328125 -20.859375 17.921875 -22.035156 17.515625 -23.296875 C 17.109375 -24.566406 16.703125 -25.84375 16.296875 -27.125 C 15.859375 -25.8125 15.425781 -24.5 15 -23.1875 C 14.582031 -21.875 14.171875 -20.671875 13.765625 -19.578125 Z M 13.765625 -19.578125 "/></g></g></g><g fill="#ffffff" fill-opacity="1"><g transform="translate(327.456397, 48.14238)"><g><path d="M 28.90625 -22.34375 C 28.90625 -20.375 28.316406 -18.546875 27.140625 -16.859375 C 25.972656 -15.171875 24.453125 -13.921875 22.578125 -13.109375 L 30.21875 0.046875 L 24.078125 0 L 17.140625 -12.3125 L 9.65625 -12.3125 L 9.65625 0 L 4.59375 0 L 4.59375 -32.796875 L 18.546875 -32.796875 C 20.265625 -32.796875 21.910156 -32.375 23.484375 -31.53125 C 25.066406 -30.6875 26.363281 -29.484375 27.375 -27.921875 C 28.394531 -26.359375 28.90625 -24.5 28.90625 -22.34375 Z M 17.703125 -27.921875 L 9.65625 -27.921875 L 9.65625 -17.1875 L 19.015625 -17.1875 C 20.515625 -17.1875 21.675781 -17.71875 22.5 -18.78125 C 23.332031 -19.84375 23.75 -21.046875 23.75 -22.390625 C 23.75 -24.109375 23.15625 -25.457031 21.96875 -26.4375 C 20.78125 -27.425781 19.359375 -27.921875 17.703125 -27.921875 Z M 17.703125 -27.921875 "/></g></g></g><g fill="#ffffff" fill-opacity="1"><g transform="translate(360.058024, 48.14238)"><g><path d="M 19.015625 0 L 3.375 0 L 3.375 -4.6875 L 8.671875 -4.6875 L 8.671875 -28.109375 L 3.375 -28.109375 L 3.375 -32.796875 L 19.015625 -32.796875 L 19.015625 -28.109375 L 13.71875 -28.109375 L 13.71875 -4.6875 L 19.015625 -4.6875 Z M 19.015625 0 "/></g></g></g></g></g></svg>