<svg xmlns="http://www.w3.org/2000/svg" version="1.1" xmlns:xlink="http://www.w3.org/1999/xlink" width="512" height="512" x="0" y="0" viewBox="0 0 24 24" style="enable-background:new 0 0 512 512" xml:space="preserve"><g><path d="M21 9h-4c-1.654 0-3 1.346-3 3v9c0 1.654 1.346 3 3 3h4c1.654 0 3-1.346 3-3v-9c0-1.654-1.346-3-3-3zm2 12c0 1.103-.897 2-2 2h-4c-1.103 0-2-.897-2-2v-9c0-1.103.897-2 2-2h4c1.103 0 2 .897 2 2zM17.5 4a.5.5 0 0 1 0 1h-11a.5.5 0 0 1 0-1zm4 8.5a.5.5 0 0 1-.5.5h-4a.5.5 0 0 1 0-1h4a.5.5 0 0 1 .5.5zm0 3a.5.5 0 0 1-.5.5h-4a.5.5 0 0 1 0-1h4a.5.5 0 0 1 .5.5zm0 3a.5.5 0 0 1-.5.5h-4a.5.5 0 0 1 0-1h4a.5.5 0 0 1 .5.5zM14 7.5a.5.5 0 0 1-.5.5h-7a.5.5 0 0 1 0-1h7a.5.5 0 0 1 .5.5zm-2 3a.5.5 0 0 1-.5.5h-5a.5.5 0 0 1 0-1h5a.5.5 0 0 1 .5.5zm-11 5c0 .827.673 1.5 1.5 1.5h9a.5.5 0 0 1 0 1h-9A2.503 2.503 0 0 1 0 15.5c0-1.208.86-2.217 2-2.449V4.5C2 2.019 4.019 0 6.5 0h11C19.981 0 22 2.019 22 4.5v2a.5.5 0 0 1-1 0v-2C21 2.57 19.43 1 17.5 1h-11C4.57 1 3 2.57 3 4.5V13h5.5c.133 0 .26.053.354.146l.854.854h1.793a.5.5 0 0 1 0 1h-2a.504.504 0 0 1-.354-.146L8.293 14H2.5c-.827 0-1.5.673-1.5 1.5z" fill="#ffffff" opacity="1" data-original="#000000"></path></g></svg>