<svg xmlns="http://www.w3.org/2000/svg" version="1.1" xmlns:xlink="http://www.w3.org/1999/xlink" width="512" height="512" x="0" y="0" viewBox="0 0 24 24" style="enable-background:new 0 0 512 512" xml:space="preserve" class=""><g><path d="M19.976 4.046C17.399 1.744 14.078.69 10.614 1.078 5.206 1.688.784 6.061.1 11.478c-.481 3.806.799 7.516 3.512 10.178a4.665 4.665 0 0 0 3.286 1.345h10.211c1.204 0 2.317-.427 3.135-1.203a11.95 11.95 0 0 0 3.757-8.747 12.09 12.09 0 0 0-4.024-9.004Zm-.421 17.026c-.631.598-1.5.928-2.446.928H6.897a3.667 3.667 0 0 1-2.585-1.058C1.823 18.5.649 15.096 1.092 11.603c.628-4.964 4.679-8.973 9.634-9.531.433-.049.862-.073 1.289-.073 2.701 0 5.254.97 7.294 2.793A11.085 11.085 0 0 1 23 13.05c0 3.063-1.224 5.913-3.445 8.022Zm-.44-5.496-5.14-2.256A2.002 2.002 0 0 0 12.001 11c-1.103 0-2 .897-2 2s.897 2 2 2c.636 0 1.204-.299 1.571-.764l5.141 2.257a.5.5 0 1 0 .402-.916ZM12.001 14a1 1 0 1 1 0-2 1 1 0 0 1 0 2Zm7.517-1.001a.5.5 0 0 1-.532-.466C18.746 8.869 15.677 6 12.002 6c-3.859 0-7 3.141-7 7 0 1.941.817 3.812 2.241 5.134a.499.499 0 1 1-.68.732A8.023 8.023 0 0 1 4.001 13c0-4.411 3.589-8 8-8 4.201 0 7.707 3.28 7.982 7.467a.5.5 0 0 1-.466.532Z" fill="#ffffff" opacity="1" data-original="#000000"></path></g></svg>